<svg width="64" height="64" viewBox="0 0 64 64" fill="none" xmlns="http://www.w3.org/2000/svg">
<path d="M4.7467 1.81847C5.3428 1.22186 6.15137 0.88632 6.99473 0.885559H57.0053C57.8487 0.88632 58.6572 1.22186 59.2533 1.81847C59.8495 2.41512 60.1843 3.22405 60.1843 4.06749V63.1145H3.81567V4.06749C3.81567 3.22405 4.15055 2.41512 4.7467 1.81847Z" fill="#EEEFEE" stroke="#253B49"/>
<path d="M47.9932 44.2426H57.9471V45.6436H47.9932V44.2426Z" fill="#DBD8DD"/>
<path d="M47.9932 47.687H57.9471V49.088H47.9932V47.687Z" fill="#DBD8DD"/>
<path d="M47.9932 51.1315H57.9471V52.5325H47.9932V51.1315Z" fill="#DBD8DD"/>
<path d="M9.46362 16.6448H45.0939V63.6146H9.46362V16.6448Z" fill="#828A9E"/>
<path d="M27.2778 19.8555H42.3618V63.532H27.2778V19.8555Z" fill="#EEEFEE"/>
<path d="M12.1938 19.8555H27.2778V63.532H12.1938V19.8555Z" fill="#EEEFEE"/>
<path d="M26.6194 19.8555H27.9364V63.532H26.6194V19.8555Z" fill="#DBD8DD"/>
<path d="M35.3897 5.56726H19.1661C18.4388 5.56726 17.8491 6.15691 17.8491 6.88427V11.1661C17.8491 11.8935 18.4388 12.4831 19.1661 12.4831H35.3897C36.1171 12.4831 36.7068 11.8935 36.7068 11.1661V6.88427C36.7068 6.15691 36.1171 5.56726 35.3897 5.56726Z" fill="#DBD8DD"/>
<path d="M21.2233 7.255H20.6134C20.2816 7.255 20.0127 7.52394 20.0127 7.85568V10.1944C20.0127 10.5261 20.2816 10.7951 20.6134 10.7951H21.2233C21.555 10.7951 21.824 10.5261 21.824 10.1944V7.85568C21.824 7.52394 21.555 7.255 21.2233 7.255Z" fill="#575B6D"/>
<path d="M25.4635 7.255H24.8536C24.5219 7.255 24.2529 7.52394 24.2529 7.85568V10.1944C24.2529 10.5261 24.5219 10.7951 24.8536 10.7951H25.4635C25.7953 10.7951 26.0642 10.5261 26.0642 10.1944V7.85568C26.0642 7.52394 25.7953 7.255 25.4635 7.255Z" fill="#EF5261"/>
<path d="M29.703 7.255H29.0931C28.7614 7.255 28.4924 7.52394 28.4924 7.85568V10.1944C28.4924 10.5261 28.7614 10.7951 29.0931 10.7951H29.703C30.0348 10.7951 30.3037 10.5261 30.3037 10.1944V7.85568C30.3037 7.52394 30.0348 7.255 29.703 7.255Z" fill="#EF5261"/>
<path d="M33.9433 7.255H33.3333C33.0016 7.255 32.7327 7.52394 32.7327 7.85568V10.1944C32.7327 10.5261 33.0016 10.7951 33.3333 10.7951H33.9433C34.275 10.7951 34.544 10.5261 34.544 10.1944V7.85568C34.544 7.52394 34.275 7.255 33.9433 7.255Z" fill="#EF5261"/>
<path d="M56.745 33.7358H49.1953C48.5314 33.7358 47.9932 34.274 47.9932 34.938V40.1574C47.9932 40.8213 48.5314 41.3595 49.1953 41.3595H56.745C57.4089 41.3595 57.9471 40.8213 57.9471 40.1574V34.938C57.9471 34.274 57.4089 33.7358 56.745 33.7358Z" fill="#DBD8DD"/>
<path d="M52.9704 39.0175C53.7821 39.0175 54.4401 38.3595 54.4401 37.5478C54.4401 36.7361 53.7821 36.0781 52.9704 36.0781C52.1587 36.0781 51.5007 36.7361 51.5007 37.5478C51.5007 38.3595 52.1587 39.0175 52.9704 39.0175Z" fill="#575B6D"/>
<path d="M52.9991 17.4209L52.6455 17.0673L52.2919 17.4209L50.5123 19.2005C50.3413 19.3716 50.1176 19.4573 49.8928 19.4573C49.668 19.4573 49.4444 19.3716 49.2733 19.2005C48.9304 18.8576 48.9304 18.3044 49.2733 17.9615L52.026 15.2088C52.3689 14.8659 52.9221 14.8659 53.265 15.2088L56.0177 17.9615C56.3606 18.3044 56.3606 18.8576 56.0177 19.2005C55.8466 19.3716 55.623 19.4573 55.3982 19.4573C55.1733 19.4573 54.9497 19.3716 54.7787 19.2005L52.9991 17.4209Z" fill="#656D78" stroke="#253B49"/>
<path d="M52.2919 27.9995L52.6455 28.353L52.9991 27.9995L54.7787 26.2199C55.1216 25.877 55.6748 25.877 56.0177 26.2199C56.3606 26.5628 56.3606 27.116 56.0177 27.4589L53.265 30.2116C53.0939 30.3827 52.8703 30.4684 52.6455 30.4684C52.4207 30.4684 52.197 30.3827 52.026 30.2116L49.2733 27.4589C48.9304 27.116 48.9304 26.5628 49.2733 26.2199C49.6162 25.877 50.1694 25.877 50.5123 26.2199L52.2919 27.9995Z" fill="#656D78" stroke="#253B49"/>
</svg>
