<svg width="60" height="60" viewBox="0 0 60 60" fill="none" xmlns="http://www.w3.org/2000/svg">
<path d="M42.4113 34.0001H29V31.6707H41.0913L44.7461 29.0001L47 30.6471L42.4113 34.0001Z" fill="#C8C1C9"/>
<path d="M28 39.0001H49V42.0001H28V39.0001Z" fill="#C8C1C9"/>
<path d="M45.4957 52.0001L41.4348 49.3295H28V47.0001H42.9014L48 50.3532L45.4957 52.0001Z" fill="#C8C1C9"/>
<path d="M2.375 4C2.375 2.067 3.942 0.5 5.875 0.5H26C27.933 0.5 29.5 2.067 29.5 4V56C29.5 57.933 27.933 59.5 26 59.5H5.875C3.942 59.5 2.375 57.933 2.375 56V4Z" fill="#E6E9ED" stroke="#253B49"/>
<path d="M22.5703 10.9661L22.7203 11.1641H22.9688H43.5625V20.7109H22.9688H22.7203L22.5703 20.9089C21.0103 22.9673 18.5543 24.2266 15.9375 24.2266C11.3623 24.2266 7.64844 20.5127 7.64844 15.9375C7.64844 11.3623 11.3623 7.64844 15.9375 7.64844C18.5543 7.64844 21.0103 8.9077 22.5703 10.9661Z" fill="#656D78" stroke="#253B49"/>
<path d="M15.9375 31.7578C13.0193 31.7578 10.6641 34.113 10.6641 37.0312C10.6641 39.9495 13.0193 42.3047 15.9375 42.3047C18.8557 42.3047 21.2109 39.9495 21.2109 37.0312C21.2109 34.113 18.8557 31.7578 15.9375 31.7578Z" fill="#FF5555"/>
<path d="M14.1797 40.5469H17.6953V49.3359H14.1797V40.5469Z" fill="#FF5555"/>
<path d="M47.5 31C45.5701 31 44 29.4299 44 27.5C44 25.5701 45.5701 24 47.5 24C49.4299 24 51 25.5701 51 27.5C51 29.4299 49.4299 31 47.5 31Z" fill="#545C66"/>
<path d="M52.5 44C50.5701 44 49 42.4299 49 40.5C49 38.5701 50.5701 37 52.5 37C54.4299 37 56 38.5701 56 40.5C56 42.4299 54.4299 44 52.5 44Z" fill="#545C66"/>
<path d="M48.5 57C46.5701 57 45 55.3702 45 53.4615C45 51.5529 46.5701 50 48.5 50C50.4299 50 52 51.5529 52 53.4615C52 55.3702 50.4299 57 48.5 57Z" fill="#545C66"/>
<path d="M15.9375 40.5469H17.6953V49.3359H15.9375V40.5469Z" fill="#FF5555"/>
<path d="M23 20.5H43.5V11H23C21.3553 9.13984 18.7649 7.5 16 7.5" stroke="#253B49"/>
<path d="M21.2109 37.0312C21.2109 39.9495 18.8557 42.3047 15.9375 42.3047V31.7578C18.8557 31.7578 21.2109 34.113 21.2109 37.0312Z" fill="#FF5555"/>
</svg>
