<svg width="78" height="57" viewBox="0 0 78 57" fill="none" xmlns="http://www.w3.org/2000/svg">
<g clip-path="url(#clip0_3163_27613)">
<path d="M74.75 53.278H3.24995C1.74643 53.278 0.5 52.0228 0.5 50.4737V3.05625C0.5 1.5072 1.74643 0.251953 3.24995 0.251953H74.7499C76.2536 0.251953 77.5 1.50722 77.5 3.05625V50.4736C77.5 52.0228 76.2536 53.278 74.75 53.278Z" fill="#F2F2F2" stroke="#253B49"/>
<path d="M16.4125 53.7763H6.17505V57.2459H16.4125V53.7763Z" fill="#ACB3BA"/>
<path d="M71.8252 53.7763H61.5876V57.2459H71.8252V53.7763Z" fill="#ACB3BA"/>
<path d="M25.6751 7.18671H25.5125C14.7875 7.18671 6.17505 15.9432 6.17505 26.8475C6.17505 37.5866 14.7875 46.5083 25.5125 46.5083H25.6751C36.2376 46.5083 45.0126 37.7519 45.0126 26.8475C44.8502 15.9432 36.2377 7.18671 25.6751 7.18671Z" fill="#8C9FB0"/>
<path d="M23.0747 23.3786C23.0747 23.3786 21.9372 22.5525 20.9622 21.0656C18.0372 16.2744 22.9122 10.4917 27.7872 12.8048C27.9497 12.8048 28.1121 12.9701 28.2747 12.9701C28.2747 12.9701 32.3372 14.9527 30.7122 17.2657C30.7122 17.2657 28.1121 20.4048 28.1121 23.3787L26.4872 25.0308L23.0747 23.3786Z" fill="#F2F2F2"/>
<path d="M28.1127 30.1525C28.1127 30.1525 29.2502 30.9785 30.2252 32.4655C33.1502 37.2568 28.2753 43.0395 23.4003 40.7263C23.2377 40.7263 23.0753 40.5611 22.9128 40.5611C22.9128 40.5611 18.8502 38.5784 20.4753 36.2654C20.4753 36.2654 23.0753 33.1262 23.0753 30.1523L24.7002 28.5002L28.1127 30.1525Z" fill="#F2F2F2"/>
<path d="M28.9251 24.2048C28.9251 24.2048 29.7375 23.0482 31.2 22.0569C35.9125 19.0829 41.6 24.0395 39.3249 28.9961C39.3249 29.1613 39.1624 29.3265 39.1624 29.4917C39.1624 29.4917 37.2124 33.6223 34.9375 31.97C34.9375 31.97 31.8499 29.3265 28.9249 29.3265L27.3 27.6744L28.9251 24.2048Z" fill="#F2F2F2"/>
<path d="M22.2625 29.3275C22.2625 29.3275 21.45 30.484 19.9875 31.4753C15.2751 34.4493 9.58746 29.4927 11.8626 24.5362C11.8626 24.3709 12.0251 24.2058 12.0251 24.0406C12.0251 24.0406 13.9751 19.9101 16.2501 21.5623C16.2501 21.5623 19.3376 24.2058 22.2626 24.2058L23.8877 25.8581L22.2625 29.3275Z" fill="#F2F2F2"/>
<path d="M25.5124 31.8024C28.2946 31.8024 30.55 29.5093 30.55 26.6806C30.55 23.852 28.2946 21.5589 25.5124 21.5589C22.7302 21.5589 20.4749 23.852 20.4749 26.6806C20.4749 29.5093 22.7302 31.8024 25.5124 31.8024Z" fill="#CDD6E0"/>
<path d="M25.5126 30.6497C27.5767 30.6497 29.25 28.9484 29.25 26.8497C29.25 24.7511 27.5767 23.0497 25.5126 23.0497C23.4485 23.0497 21.7751 24.7511 21.7751 26.8497C21.7751 28.9484 23.4485 30.6497 25.5126 30.6497Z" fill="#F2F2F2"/>
<path d="M25.5125 28.6632C26.4997 28.6632 27.3 27.8495 27.3 26.8458C27.3 25.8422 26.4997 25.0285 25.5125 25.0285C24.5254 25.0285 23.7251 25.8422 23.7251 26.8458C23.7251 27.8495 24.5254 28.6632 25.5125 28.6632Z" fill="#ACB3BA"/>
<path d="M72.9628 22.2208H50.3752V26.0207H72.9628V22.2208Z" fill="#ACB3BA"/>
<path d="M72.9628 14.7861H50.3752V18.586H72.9628V14.7861Z" fill="#ACB3BA"/>
<path d="M72.9628 7.51593H50.3752V11.3159H72.9628V7.51593Z" fill="#ACB3BA"/>
<path d="M69.55 29.4911H53.95V46.0129H69.55V29.4911Z" fill="#FF7058"/>
</g>
<defs>
<clipPath id="clip0_3163_27613">
<rect width="78" height="57" fill="white"/>
</clipPath>
</defs>
</svg>
