<svg width="74" height="62" viewBox="0 0 74 62" fill="none" xmlns="http://www.w3.org/2000/svg">
<g clip-path="url(#clip0_3163_27667)">
<path d="M74 12.7307V13.6954H0V12.7307C0 11.0401 0.24816 9.35862 0.736676 7.74001L2.42755 2.1374C2.77457 0.987512 3.83384 0.200684 5.03504 0.200684H68.965C70.166 0.200684 71.2253 0.987512 71.5725 2.13726L73.2633 7.73987C73.7518 9.35876 74 11.0402 74 12.7307Z" fill="#9AADAF"/>
<path d="M73.2634 7.74001L71.5726 2.1374C71.2255 0.987512 70.1663 0.200684 68.9651 0.200684H61.8267C63.0277 0.200684 64.087 0.987512 64.4341 2.1374L66.125 7.74001C66.6135 9.35847 66.8617 11.0399 66.8617 12.7307V13.6954H74.0001V12.7307C74.0001 11.0402 73.7519 9.35876 73.2634 7.74001Z" fill="#8A9FA0"/>
<path d="M70.5769 61.2998H3.42308C1.80875 61.2998 0.5 59.991 0.5 58.3767V12.3743C0.5 10.7598 1.80874 9.45117 3.42308 9.45117H70.5768C72.1912 9.45117 73.4998 10.7599 73.4998 12.3743V58.3768C73.5 59.991 72.1913 61.2998 70.5769 61.2998Z" fill="#F2F2F2" stroke="#253B49"/>
<path d="M69.6696 10H65.6193V56.5488C65.6193 57.3264 64.9837 57.9568 64.1997 57.9568H4.33057C2.49119 57.9566 1 56.4778 1 54.6533V57.6967C1 59.5211 2.49119 61 4.33057 61H62.2884H69.6694C71.509 61 73 59.521 73 57.6967V54.6533V13.3035C73.0001 11.4789 71.509 10 69.6696 10Z" fill="#F2F2F2"/>
<path d="M49.1161 55.6945C59.9975 55.6945 68.8186 46.8734 68.8186 35.9921C68.8186 25.1107 59.9975 16.2896 49.1161 16.2896C38.2347 16.2896 29.4136 25.1107 29.4136 35.9921C29.4136 46.8734 38.2347 55.6945 49.1161 55.6945Z" fill="#435256"/>
<path d="M21.3019 16.2896H6.54973C5.79426 16.2896 5.18188 16.9019 5.18188 17.6574V32.4096C5.18188 33.165 5.79426 33.7774 6.54973 33.7774H21.3019C22.0574 33.7774 22.6697 33.165 22.6697 32.4096V17.6574C22.6697 16.9019 22.0574 16.2896 21.3019 16.2896Z" fill="#FC5F61"/>
<path d="M19.0501 45.6274H8.80152C8.46578 45.6274 8.14608 45.771 7.92292 46.022L5.47875 48.7717C5.28754 48.9869 5.18188 49.2647 5.18188 49.5526V54.5969C5.18188 55.2461 5.70812 55.7724 6.35736 55.7724H21.4944C22.1436 55.7724 22.6699 55.2461 22.6699 54.5969V49.5526C22.6699 49.2647 22.5642 48.9869 22.373 48.7717L19.9288 46.022C19.7055 45.7711 19.3858 45.6274 19.0501 45.6274Z" fill="#9AADAF"/>
<path d="M10.7172 48.5132C10.1096 48.5132 9.61719 49.0057 9.61719 49.6132V52.3879C9.61719 52.9955 10.1097 53.4881 10.7172 53.4881C11.3247 53.4881 11.8172 52.9955 11.8172 52.3879V49.6132C11.8174 49.0056 11.3248 48.5132 10.7172 48.5132Z" fill="white"/>
<path d="M17.1345 48.5132C16.5268 48.5132 16.0344 49.0057 16.0344 49.6132V52.3879C16.0344 52.9955 16.527 53.4881 17.1345 53.4881C17.7419 53.4881 18.2345 52.9955 18.2345 52.3879V49.6132C18.2345 49.0056 17.7419 48.5132 17.1345 48.5132Z" fill="white"/>
<path d="M68.8181 34.891H63.6001C63.0633 27.7568 57.3504 22.0438 50.2162 21.507V16.289C50.2162 15.6814 49.7238 15.189 49.1162 15.189C48.5086 15.189 48.016 15.6815 48.016 16.289V21.507C40.8818 22.0438 35.1688 27.7567 34.632 34.891H29.414C28.8064 34.891 28.314 35.3836 28.314 35.9912C28.314 36.5988 28.8065 37.0912 29.414 37.0912H34.632C35.1688 44.2256 40.8818 49.9385 48.016 50.4753V55.6933C48.016 56.3009 48.5084 56.7933 49.1162 56.7933C49.724 56.7933 50.2162 56.3007 50.2162 55.6933V50.4753C57.3506 49.9385 63.0635 44.2256 63.6001 37.0912H68.8181C69.4257 37.0912 69.9182 36.5987 69.9182 35.9912C69.9182 35.3836 69.4257 34.891 68.8181 34.891ZM48.0159 23.7176V28.2351C44.5746 28.721 41.8457 31.4497 41.3598 34.8912H36.8423C37.3687 28.9713 42.0962 24.244 48.0159 23.7176ZM48.0159 48.2648C42.0962 47.7384 37.3687 43.0109 36.8423 37.0912H41.3599C41.8458 40.5325 44.5746 43.2614 48.016 43.7473V48.2648H48.0159ZM49.1161 41.6259C46.0091 41.6259 43.4814 39.0982 43.4814 35.9912C43.4814 32.8842 46.0092 30.3565 49.1161 30.3565C52.223 30.3565 54.7508 32.8842 54.7508 35.9912C54.7508 39.0983 52.2229 41.6259 49.1161 41.6259ZM50.2161 48.2648V43.7473C53.6574 43.2614 56.3863 40.5327 56.8722 37.0912H61.3897C60.8631 43.0109 56.1358 47.7384 50.2161 48.2648ZM56.8722 34.891C56.3863 31.4497 53.6574 28.7208 50.2161 28.2349V23.7175C56.1358 24.2438 60.8631 28.9713 61.3895 34.891H56.8722Z" fill="#F2F2F2"/>
<path d="M17.3067 24.362C17.1262 23.9742 16.7371 23.7262 16.3094 23.7262H13.9258L16.9211 20.2926C17.3187 19.8333 17.2685 19.1385 16.8092 18.7409C16.3497 18.3433 15.655 18.3936 15.2575 18.8528L10.7104 24.1065C10.4287 24.4321 10.3627 24.8921 10.5417 25.2837C10.7207 25.6754 11.1118 25.9264 11.5423 25.9264H13.9259L10.7004 29.7861C10.3093 30.2511 10.3693 30.9451 10.8343 31.3361C11.0405 31.5095 11.2919 31.5942 11.5418 31.5942C11.8552 31.5942 12.1667 31.4609 12.3842 31.2022L17.1513 25.5343C17.4266 25.2071 17.4873 24.7498 17.3067 24.362Z" fill="white"/>
<path d="M68.8183 34.8916H66.4141V37.0918H68.8183C69.4259 37.0918 69.9184 36.5992 69.9184 35.9918C69.9184 35.3842 69.4259 34.8916 68.8183 34.8916Z" fill="#F2F2F2"/>
</g>
<defs>
<clipPath id="clip0_3163_27667">
<rect width="74" height="62" fill="white"/>
</clipPath>
</defs>
</svg>
