<svg width="84" height="84" viewBox="0 0 84 84" fill="none" xmlns="http://www.w3.org/2000/svg">
<path d="M42.4169 18.1545C40.7066 18.0323 39.1174 18.5327 37.8504 19.4506C37.6748 19.5777 37.4379 19.5759 37.2624 19.4488C36.1223 18.6236 34.7216 18.1363 33.2066 18.1363C32.8286 18.1363 32.4581 18.1676 32.0969 18.2264C31.8626 18.2644 31.6498 18.0912 31.641 17.8541C31.641 17.8531 31.641 17.8521 31.6408 17.8512C31.4913 14.1578 28.4498 11.2094 24.7196 11.2094C20.9705 11.2094 17.917 14.1881 17.7965 17.9081V17.9104C17.7911 18.0833 17.64 18.215 17.4679 18.197L17.4256 18.1926C17.1393 18.1558 16.8476 18.1363 16.5511 18.1363C12.5603 18.1363 9.35781 21.5111 9.6418 25.5626C9.88396 29.0177 12.7111 31.7943 16.1697 31.9799C18.2162 32.0896 20.0813 31.3099 21.4154 29.9934C22.6662 31.2277 24.3836 31.9901 26.2797 31.9901C27.5418 31.9901 28.7241 31.6508 29.7431 31.0611C30.7622 31.6509 31.9443 31.9901 33.2064 31.9901C34.8549 31.9901 36.3683 31.4132 37.5575 30.4516C38.7468 31.4132 40.26 31.9901 41.9086 31.9901C45.8988 31.9901 49.101 28.6163 48.8181 24.5656C48.5802 21.1572 45.825 18.398 42.4169 18.1545Z" fill="#F0F0F3"/>
<path d="M48.8182 24.5654C48.6261 21.8139 46.7931 19.4863 44.3008 18.563C44.5224 19.1612 44.6642 19.7969 44.7103 20.4576C44.9933 24.5083 41.791 27.8821 37.8008 27.8821C36.1523 27.8821 34.639 27.3052 33.4497 26.3436C32.2604 27.3052 30.7471 27.8821 29.0986 27.8821C27.8365 27.8821 26.6542 27.5428 25.6352 26.9531C24.6161 27.5429 23.434 27.8821 22.1719 27.8821C20.2758 27.8821 18.5584 27.1195 17.3076 25.8854C15.9734 27.2019 14.1084 27.9816 12.0619 27.8719C11.3594 27.8342 10.6837 27.688 10.0498 27.4527C10.9864 29.9827 13.3709 31.8297 16.1697 31.9798C18.2162 32.0896 20.0812 31.3098 21.4154 29.9934C22.6662 31.2276 24.3836 31.99 26.2797 31.99C27.5418 31.99 28.724 31.6507 29.743 31.0611C30.7622 31.6509 31.9443 31.99 33.2064 31.99C34.8549 31.99 36.3682 31.4132 37.5575 30.4516C38.7468 31.4132 40.2599 31.99 41.9086 31.99C45.8989 31.9899 49.1013 28.6161 48.8182 24.5654Z" fill="#E0DDE2"/>
<path d="M27.9948 51.038C26.8349 50.9185 25.7235 51.0667 24.7103 51.4229C23.267 49.3878 20.8395 48.0999 18.1202 48.2586C14.2861 48.4824 11.2038 51.6286 11.0535 55.4663C10.8854 59.7592 14.3156 63.2923 18.571 63.2923C19.2867 63.2923 19.9785 63.1912 20.6341 63.0042C20.8935 62.9302 21.1703 63.0172 21.3391 63.2275C22.7179 64.9441 24.8328 66.0439 27.2058 66.0439C31.5343 66.0439 35.0091 62.3885 34.7115 57.9964C34.4661 54.3748 31.6055 51.4099 27.9948 51.038Z" fill="#F0F0F3"/>
<path d="M34.7116 57.9961C34.5387 55.4444 33.0667 53.2204 30.9496 51.9978C31.1544 52.5989 31.2856 53.2325 31.3301 53.8881C31.6277 58.2804 28.153 61.9357 23.8246 61.9357C21.4514 61.9357 19.3365 60.8358 17.9579 59.1191C17.7889 58.9088 17.5123 58.8218 17.2529 58.8958C16.5973 59.0828 15.9054 59.1839 15.1898 59.1839C13.8263 59.1839 12.5484 58.8197 11.4456 58.1854C12.4524 61.1546 15.2618 63.2917 18.5713 63.2917C19.2869 63.2917 19.9788 63.1906 20.6344 63.0036C20.8938 62.9296 21.1705 63.0166 21.3393 63.2269C22.7181 64.9435 24.8331 66.0435 27.2061 66.0435C31.5345 66.0438 35.0092 62.3884 34.7116 57.9961Z" fill="#E0DDE2"/>
<path d="M24.0727 57.5032L8.4308 36.1465H75.4005L59.7585 57.5031C59.2173 58.2421 58.3561 58.6788 57.4401 58.6788H26.3911C25.475 58.6788 24.6139 58.2421 24.0727 57.5032Z" fill="#E0DDE2" stroke="#253B49"/>
<path d="M56.3451 50.8205L67.0925 36.1465H75.4004L59.7586 57.5032C59.2173 58.2421 58.3562 58.6788 57.4401 58.6788H26.3911C25.4751 58.6788 24.614 58.2421 24.0727 57.5032L20.339 52.4053H53.22C54.4548 52.4053 55.6155 51.8166 56.3451 50.8205Z" fill="#C8C1C9" stroke="#253B49"/>
<path d="M82.3594 38.1838H1.64062C1.01065 38.1838 0.5 37.6732 0.5 37.0432V26.3232C0.5 25.6932 1.01065 25.1826 1.64062 25.1826H82.3594C82.9893 25.1826 83.5 25.6932 83.5 26.3232V37.0432C83.5 37.673 82.9893 38.1838 82.3594 38.1838Z" fill="#E0DDE2" stroke="#253B49"/>
<path d="M79.6439 32.1399V25.1816H82.3131C82.9686 25.1816 83.5 25.713 83.5 26.3685V36.9959C83.5 37.6515 82.9687 38.1828 82.3131 38.1828H1.68689C1.03132 38.1828 0.5 37.6515 0.5 36.9959V34.3268H77.457C78.6649 34.3268 79.6439 33.3477 79.6439 32.1399Z" fill="#C8C1C9" stroke="#253B49"/>
<path d="M55.9712 54.2765C55.7165 54.2765 55.4592 54.1998 55.2361 54.0403C54.6678 53.6336 54.5368 52.8435 54.9434 52.2751L61.4311 43.2081C61.8378 42.6399 62.6281 42.509 63.1962 42.9154C63.7646 43.3221 63.8955 44.1122 63.4889 44.6805L57.0012 53.7476C56.7543 54.0926 56.3656 54.2765 55.9712 54.2765Z" fill="#786E79"/>
<path d="M27.8602 54.2764C27.4658 54.2764 27.0771 54.0925 26.8302 53.7473L20.3425 44.6803C19.936 44.1119 20.0671 43.3218 20.6352 42.9151C21.2037 42.5086 21.9938 42.6398 22.4003 43.2078L28.888 52.2749C29.2946 52.8432 29.1635 53.6333 28.5953 54.04C28.3722 54.1997 28.115 54.2764 27.8602 54.2764Z" fill="#786E79"/>
<path d="M39.3006 54.2768C38.6893 54.2768 38.1515 53.8328 38.0526 53.2099L36.6128 44.1428C36.5032 43.4527 36.9739 42.8045 37.6639 42.6948C38.354 42.5863 39.0023 43.0557 39.1119 43.7459L40.5517 52.813C40.6613 53.503 40.1906 54.1512 39.5006 54.261C39.4333 54.2715 39.3666 54.2768 39.3006 54.2768Z" fill="#786E79"/>
<path d="M44.5309 54.2766C44.4649 54.2766 44.3981 54.2713 44.3309 54.2608C43.6408 54.1512 43.1703 53.503 43.2797 52.8128L44.7195 43.7457C44.8291 43.0557 45.4777 42.5856 46.1676 42.6946C46.8576 42.8042 47.3281 43.4524 47.2187 44.1426L45.7789 53.2097C45.68 53.8324 45.1422 54.2766 44.5309 54.2766Z" fill="#786E79"/>
<path d="M33.7742 54.2767C33.2878 54.2767 32.8242 53.9946 32.6156 53.5208L28.6242 44.4538C28.3426 43.8142 28.6329 43.0676 29.2724 42.7861C29.9117 42.5044 30.6585 42.7946 30.9401 43.4343L34.9315 52.5014C35.2131 53.1409 34.9228 53.8875 34.2833 54.169C34.1176 54.2421 33.9445 54.2767 33.7742 54.2767Z" fill="#786E79"/>
<path d="M50.0571 54.2768C49.8868 54.2768 49.7139 54.2421 49.548 54.1691C48.9085 53.8876 48.6183 53.1409 48.8998 52.5014L52.8913 43.4343C53.1728 42.7948 53.9194 42.5048 54.559 42.7861C55.1985 43.0677 55.4887 43.8143 55.2072 44.4538L51.2157 53.5209C51.0072 53.9947 50.5434 54.2768 50.0571 54.2768Z" fill="#786E79"/>
<path d="M45.3057 34.1645H38.5257C37.2202 34.1645 36.1619 33.1061 36.1619 31.8006V31.6582C36.1619 30.3528 37.2202 29.2944 38.5257 29.2944H45.3057C46.6112 29.2944 47.6695 30.3528 47.6695 31.6582V31.8006C47.6694 33.1061 46.6112 34.1645 45.3057 34.1645Z" fill="#FB636F"/>
<path d="M45.3057 29.2944H45.2522V29.3834C45.2522 30.6888 44.1939 31.7472 42.8884 31.7472H36.1619V31.8006C36.1619 33.1061 37.2202 34.1645 38.5257 34.1645H45.3057C46.6112 34.1645 47.6695 33.1063 47.6695 31.8006V31.6582C47.6694 30.3528 46.6112 29.2944 45.3057 29.2944Z" fill="#FA2A3B"/>
<path d="M74.1197 62.299C74.1197 59.2996 71.9546 56.8073 69.1024 56.2964C68.8719 56.2551 68.6792 56.1004 68.5907 55.8835C67.6811 53.6581 65.4963 52.0894 62.9436 52.0894C62.8534 52.0894 62.7637 52.0915 62.6744 52.0956C62.4221 52.1073 62.186 51.9822 62.0546 51.7665C60.9839 50.0099 59.0514 48.8362 56.8438 48.8362C53.4749 48.8362 50.7439 51.5672 50.7439 54.936C50.7439 55.1181 50.7521 55.2981 50.7681 55.4761C50.806 55.9001 50.4568 56.2485 50.0324 56.2162C49.8813 56.2047 49.7286 56.1988 49.5745 56.1988C46.171 56.1988 43.4184 58.9864 43.4755 62.403C43.5313 65.7476 46.3298 68.3987 49.6749 68.3987H56.7303C57.1204 68.3987 57.4608 68.6484 57.5954 69.0146C58.405 71.2179 60.5212 72.7901 63.0055 72.7901C65.5307 72.7901 67.6754 71.1656 68.4543 68.905C68.5633 68.589 68.8305 68.3537 69.159 68.2917C71.9833 67.7583 74.1197 65.2785 74.1197 62.299Z" fill="#F0F0F3"/>
<path d="M70.4632 56.711C70.7901 57.4585 70.9726 58.2837 70.9726 59.1519C70.9726 62.1315 68.8362 64.6113 66.0118 65.1448C65.6834 65.2068 65.4161 65.4421 65.3072 65.7581C64.5282 68.0188 62.3836 69.6432 59.8583 69.6432C59.0846 69.6432 58.3468 69.4906 57.6729 69.214C58.5342 71.3122 60.5968 72.7901 63.0054 72.7901C65.5306 72.7901 67.6752 71.1656 68.4542 68.9049C68.5632 68.589 68.8304 68.3537 69.1589 68.2917C71.9832 67.7581 74.1196 65.2783 74.1196 62.2988C74.1196 59.7993 72.6152 57.653 70.4632 56.711Z" fill="#E0DDE2"/>
</svg>
