<svg width="73" height="73" viewBox="0 0 73 73" fill="none" xmlns="http://www.w3.org/2000/svg">
<path d="M68.4375 33.0781V39.9219C68.4375 57.5559 54.1341 71.8594 36.5 71.8594C18.8659 71.8594 4.5625 57.5559 4.5625 39.9219V33.0781C4.5625 50.7122 18.8659 65.0156 36.5 65.0156C54.1341 65.0156 68.4375 50.7122 68.4375 33.0781Z" fill="#CCD1D9"/>
<path d="M36.5 10.2656C49.0811 10.2656 59.3125 20.4856 59.3125 33.0781C59.3125 45.6592 49.0811 55.8906 36.5 55.8906C23.9189 55.8906 13.6875 45.6592 13.6875 33.0781C13.6875 20.4856 23.9189 10.2656 36.5 10.2656ZM50.1875 33.0781C50.1875 25.5272 44.0509 19.3906 36.5 19.3906C28.9491 19.3906 22.8125 25.5272 22.8125 33.0781C22.8125 40.6291 28.9491 46.7656 36.5 46.7656C44.0509 46.7656 50.1875 40.6291 50.1875 33.0781Z" fill="#656D78"/>
<path d="M67.9375 33.0781C67.9375 50.436 53.8579 64.5156 36.5 64.5156C19.1421 64.5156 5.0625 50.436 5.0625 33.0781C5.0625 15.7202 19.1421 1.64062 36.5 1.64062C53.8579 1.64062 67.9375 15.7202 67.9375 33.0781ZM59.8125 33.0781C59.8125 20.2093 49.3571 9.76562 36.5 9.76562C23.6429 9.76562 13.1875 20.2093 13.1875 33.0781C13.1875 45.9354 23.6428 56.3906 36.5 56.3906C49.3572 56.3906 59.8125 45.9354 59.8125 33.0781Z" fill="#E6E9ED" stroke="#253B49"/>
<path d="M36.5 19.3906C44.0509 19.3906 50.1875 25.5272 50.1875 33.0781C50.1875 40.6291 44.0509 46.7656 36.5 46.7656C28.9491 46.7656 22.8125 40.6291 22.8125 33.0781C22.8125 25.5272 28.9491 19.3906 36.5 19.3906Z" fill="#E6E9ED"/>
<path d="M36.5 52.4688C25.8078 52.4688 17.1094 43.7703 17.1094 33.0781C17.1094 32.4474 17.6192 31.9375 18.25 31.9375C18.8808 31.9375 19.3906 32.4474 19.3906 33.0781C19.3906 42.5122 27.0659 50.1875 36.5 50.1875C37.1308 50.1875 37.6406 50.6974 37.6406 51.3281C37.6406 51.9589 37.1308 52.4688 36.5 52.4688Z" fill="#545C66"/>
<path d="M54.75 34.2188C54.1192 34.2188 53.6094 33.7089 53.6094 33.0781C53.6094 23.644 45.9341 15.9688 36.5 15.9688C35.8692 15.9688 35.3594 15.4589 35.3594 14.8281C35.3594 14.1974 35.8692 13.6875 36.5 13.6875C47.1922 13.6875 55.8906 22.3859 55.8906 33.0781C55.8906 33.7089 55.3808 34.2188 54.75 34.2188Z" fill="#545C66"/>
<path d="M36.5343 61.5916C35.9035 61.5916 35.3879 61.0817 35.3879 60.4509C35.3879 59.8202 35.8921 59.3103 36.5217 59.3103H36.5343C37.1639 59.3103 37.6749 59.8202 37.6749 60.4509C37.6749 61.0817 37.1639 61.5916 36.5343 61.5916Z" fill="#ED5565"/>
<path d="M43.3438 31.9375H29.6562C29.0255 31.9375 28.5156 31.4276 28.5156 30.7969C28.5156 30.1661 29.0255 29.6562 29.6562 29.6562H43.3438C43.9745 29.6562 44.4844 30.1661 44.4844 30.7969C44.4844 31.4276 43.9745 31.9375 43.3438 31.9375Z" fill="#CCD1D9"/>
<path d="M43.3438 35.3594H29.6562C29.0255 35.3594 28.5156 34.8495 28.5156 34.2188C28.5156 33.588 29.0255 33.0781 29.6562 33.0781H43.3438C43.9745 33.0781 44.4844 33.588 44.4844 34.2188C44.4844 34.8495 43.9745 35.3594 43.3438 35.3594Z" fill="#CCD1D9"/>
<path d="M39.9219 38.7812H33.0781C32.4474 38.7812 31.9375 38.2714 31.9375 37.6406C31.9375 37.0099 32.4474 36.5 33.0781 36.5H39.9219C40.5526 36.5 41.0625 37.0099 41.0625 37.6406C41.0625 38.2714 40.5526 38.7812 39.9219 38.7812Z" fill="#CCD1D9"/>
</svg>
