<svg width="30" height="23" viewBox="0 0 30 23" fill="none" xmlns="http://www.w3.org/2000/svg">
<path d="M2 12.0795H3V13.1299H2V12.0795Z" fill="#1F5FBF"/>
<path d="M27 12.0795H28V13.1299H27V12.0795Z" fill="#1F5FBF"/>
<path d="M14.5 8.40314H15.5V9.45353H14.5V8.40314Z" fill="#1F5FBF"/>
<path d="M25.4304 1.72659C22.6364 0.613037 18.9322 0 15 0C11.0678 0 7.36356 0.613037 4.56962 1.72659C1.62287 2.90034 0 4.52549 0 6.30237V12.6047C0 14.8368 2.50694 16.7789 6.87806 17.9332L7.12181 16.9144C3.34575 15.9174 1 14.266 1 12.6047C1 11.3144 2.43038 10.0044 4.92431 9.01074C7.60775 7.94157 11.186 7.35276 15 7.35276C18.814 7.35276 22.3923 7.94157 25.0757 9.01074C27.5696 10.0044 29 11.3144 29 12.6047C29 14.266 26.6543 15.9174 22.8781 16.9144L23.1218 17.9332C27.4931 16.7789 30 14.8368 30 12.6047V6.30237C30 4.52549 28.3771 2.90034 25.4304 1.72659ZM25.4304 8.02895C22.6364 6.9154 18.9322 6.30237 15 6.30237C11.0678 6.30237 7.36356 6.9154 4.56962 8.02895C2.98837 8.65886 1.78931 9.41876 1.01669 10.2621C1.183 9.05132 2.58625 7.84179 4.92431 6.91028C7.60775 5.84078 11.186 5.25197 15 5.25197C18.814 5.25197 22.3923 5.84079 25.0757 6.90996C27.4137 7.84146 28.817 9.05099 28.9833 10.2618C28.2107 9.41843 27.0114 8.65853 25.4304 8.02895ZM25.4304 5.92816C22.6364 4.81461 18.9322 4.20158 15 4.20158C11.0678 4.20158 7.36356 4.81461 4.56962 5.92816C2.977 6.56234 1.772 7.32887 1 8.17995V6.30237C1 5.01202 2.43038 3.70205 4.92431 2.70838C7.60775 1.63921 11.186 1.05039 15 1.05039C18.814 1.05039 22.3923 1.63921 25.0757 2.70838C27.5696 3.70205 29 5.01202 29 6.30237V8.17995C28.228 7.32887 27.023 6.56234 25.4304 5.92816Z" fill="#1F5FBF"/>
<path d="M23.2952 14.7342C23.4015 14.5129 23.4562 14.2683 23.4549 14.0204C23.4536 13.7726 23.3962 13.5286 23.2877 13.3086C22.7512 12.2373 21.3414 11.5839 20.2532 11.2244C18.776 10.7364 16.9103 10.4675 14.9999 10.4675C13.0895 10.4675 11.2238 10.7364 9.74659 11.2244C8.65841 11.5839 7.24859 12.2373 6.71216 13.3086C6.60357 13.5286 6.54626 13.7726 6.54495 14.0204C6.54363 14.2683 6.59835 14.5129 6.70459 14.7342L9.50703 20.6215C9.57928 21.3298 10.2048 21.951 11.287 22.3822C12.2867 22.7805 13.6053 22.9999 14.9999 22.9999C16.3945 22.9999 17.7132 22.7805 18.7128 22.3822C19.795 21.951 20.4205 21.3298 20.4928 20.6215L23.2952 14.7342ZM7.59722 13.7976C8.15059 12.6925 10.9332 11.5179 14.9999 11.5179C19.0667 11.5179 21.8492 12.6925 22.4026 13.7976C22.4375 13.87 22.4555 13.9501 22.4552 14.0312C22.4549 14.1124 22.4362 14.1923 22.4008 14.2644L19.9775 19.3553C19.677 19.0592 19.2515 18.7973 18.7128 18.5828C17.7132 18.1848 16.3945 17.9652 14.9999 17.9652C13.6053 17.9652 12.2867 18.1845 11.287 18.5828C10.7483 18.7975 10.3228 19.0592 10.0223 19.3553L7.59903 14.2644C7.5636 14.1923 7.54495 14.1124 7.54464 14.0312C7.54432 13.9501 7.56235 13.87 7.59722 13.7976ZM18.3581 21.3998C17.469 21.7543 16.2763 21.9492 14.9999 21.9492C13.7235 21.9492 12.5312 21.7541 11.6417 21.3998C10.853 21.0858 10.4999 20.7128 10.4999 20.4825C10.4999 20.2522 10.853 19.8792 11.6417 19.5649C12.5308 19.2104 13.7235 19.0156 14.9999 19.0156C16.2763 19.0156 17.4687 19.2107 18.3581 19.5649C19.1468 19.8792 19.4999 20.2522 19.4999 20.4825C19.4999 20.7128 19.1468 21.0858 18.3581 21.4001V21.3998Z" fill="#1F5FBF"/>
<path d="M14.5 13.1299H15.5V16.2811H14.5V13.1299Z" fill="#1F5FBF"/>
<path d="M16.6172 16.5873L17.116 13.4374L18.102 13.6096L17.6032 16.7595L16.6172 16.5873Z" fill="#1F5FBF"/>
<path d="M18.5957 17.3013L19.5008 14.2544L20.4558 14.5674L19.5507 17.6143L18.5957 17.3013Z" fill="#1F5FBF"/>
<path d="M11.8691 13.608L12.8551 13.4357L13.3539 16.5856L12.3679 16.7579L11.8691 13.608Z" fill="#1F5FBF"/>
<path d="M9.56152 14.5809L10.5165 14.2679L11.4217 17.3147L10.4667 17.6277L9.56152 14.5809Z" fill="#1F5FBF"/>
<path d="M14.5 19.9575H15.5V21.0079H14.5V19.9575Z" fill="#1F5FBF"/>
</svg>
