<svg width="35" height="30" viewBox="0 0 35 30" fill="none" xmlns="http://www.w3.org/2000/svg">
<g clip-path="url(#clip0_3163_27508)">
<path d="M28.3855 1.32733H6.61548C6.48857 1.32733 6.36686 1.37886 6.27712 1.47057C6.18738 1.56228 6.13696 1.68667 6.13696 1.81636V6.76034C6.13696 6.89004 6.18738 7.01443 6.27712 7.10614C6.36686 7.19785 6.48857 7.24937 6.61548 7.24937H7.55337L8.12759 9.9234C8.2137 10.3176 8.40529 10.6796 8.68098 10.969C8.95668 11.2584 9.30563 11.4638 9.68892 11.5624V13.2206C9.68892 17.1438 12.4635 19.3042 17.501 19.3042C22.5386 19.3042 25.3131 17.1438 25.3131 13.2206V11.5624C25.6964 11.4641 26.0453 11.259 26.321 10.9697C26.5966 10.6805 26.7882 10.3186 26.8742 9.92452L27.4484 7.24937H28.3863C28.5132 7.24937 28.6349 7.19785 28.7247 7.10614C28.8144 7.01443 28.8648 6.89004 28.8648 6.76034V1.81636C28.8648 1.75207 28.8524 1.68841 28.8283 1.62903C28.8042 1.56964 28.7689 1.51569 28.7244 1.47027C28.6799 1.42485 28.627 1.38884 28.5689 1.36432C28.5107 1.33979 28.4484 1.32722 28.3855 1.32733ZM17.5005 18.3261C14.3732 18.3261 10.6454 17.4403 10.6454 13.2206V11.6278H13.0298V13.7278C13.0298 13.8575 13.0802 13.9819 13.1699 14.0736C13.2597 14.1653 13.3814 14.2168 13.5083 14.2168C13.6352 14.2168 13.7569 14.1653 13.8467 14.0736C13.9364 13.9819 13.9868 13.8575 13.9868 13.7278V11.6278H15.6911V13.7278C15.6911 13.8575 15.7416 13.9819 15.8313 14.0736C15.921 14.1653 16.0427 14.2168 16.1697 14.2168C16.2966 14.2168 16.4183 14.1653 16.508 14.0736C16.5978 13.9819 16.6482 13.8575 16.6482 13.7278V11.6278H18.3528V13.7278C18.3528 13.8575 18.4032 13.9819 18.4929 14.0736C18.5827 14.1653 18.7044 14.2168 18.8313 14.2168C18.9582 14.2168 19.0799 14.1653 19.1697 14.0736C19.2594 13.9819 19.3098 13.8575 19.3098 13.7278V11.6278H21.0142V13.7278C21.0142 13.8575 21.0646 13.9819 21.1543 14.0736C21.244 14.1653 21.3658 14.2168 21.4927 14.2168C21.6196 14.2168 21.7413 14.1653 21.831 14.0736C21.9208 13.9819 21.9712 13.8575 21.9712 13.7278V11.6278H24.3556V13.2206C24.3556 17.4403 20.6278 18.3261 17.5005 18.3261ZM25.9388 9.71605C25.8836 9.98137 25.7406 10.2191 25.5339 10.3892C25.3272 10.5593 25.0694 10.6513 24.804 10.6497H10.197C9.93141 10.6513 9.67345 10.5592 9.4667 10.3888C9.25994 10.2185 9.11706 9.98048 9.0622 9.71494L8.53337 7.24937H26.4676L25.9388 9.71605ZM27.9075 6.27131H27.0771C27.0702 6.27131 27.0634 6.27131 27.0566 6.27131H7.94548C7.9381 6.27131 7.93071 6.27131 7.92306 6.27131H7.09399V2.3054H27.907L27.9075 6.27131Z" fill="#1F5FBF"/>
<path d="M22.8669 3.98215H25.4991C25.626 3.98215 25.7477 3.93063 25.8374 3.83892C25.9272 3.74721 25.9776 3.62282 25.9776 3.49312C25.9776 3.36342 25.9272 3.23904 25.8374 3.14732C25.7477 3.05561 25.626 3.00409 25.4991 3.00409H22.8669C22.74 3.00409 22.6183 3.05561 22.5286 3.14732C22.4388 3.23904 22.3884 3.36342 22.3884 3.49312C22.3884 3.62282 22.4388 3.74721 22.5286 3.83892C22.6183 3.93063 22.74 3.98215 22.8669 3.98215Z" fill="#1F5FBF"/>
<path d="M17.3664 29.0834C15.1934 29.0834 13.1506 28.2183 11.6141 26.6485L10.9375 27.34C12.6549 29.0946 14.9379 30.0615 17.3664 30.0615C19.7948 30.0615 22.0778 29.0946 23.7952 27.34L23.1186 26.6485C21.5821 28.2183 19.5393 29.0834 17.3664 29.0834Z" fill="#1F5FBF"/>
<path d="M12.2908 25.9563C13.6464 27.3418 15.4485 28.1051 17.3659 28.1051C19.2833 28.1051 21.0854 27.3418 22.441 25.9563L21.7644 25.2648C20.5897 26.4654 19.0278 27.1271 17.3659 27.1271C15.704 27.1271 14.1421 26.4654 12.9674 25.2648L12.2908 25.9563Z" fill="#1F5FBF"/>
<path d="M13.644 24.5733C14.6705 25.6223 16.018 26.1465 17.3659 26.1465C18.7139 26.1465 20.0619 25.6223 21.0878 24.5733L20.4112 23.8818C18.7316 25.5983 15.9998 25.5983 14.3202 23.8818L13.644 24.5733Z" fill="#1F5FBF"/>
<path d="M20.0736 23.0473L19.397 22.3558C18.2772 23.4992 16.456 23.4992 15.3363 22.3558L14.6597 23.0473C15.4062 23.8102 16.3862 24.1912 17.3666 24.1912C18.3471 24.1912 19.3276 23.8102 20.0736 23.0473Z" fill="#1F5FBF"/>
</g>
<defs>
<clipPath id="clip0_3163_27508">
<rect width="35" height="30" fill="white"/>
</clipPath>
</defs>
</svg>
