<svg width="28" height="28" viewBox="0 0 28 28" fill="none" xmlns="http://www.w3.org/2000/svg">
<g clip-path="url(#clip0_3163_27516)">
<path d="M22.75 18.8125H18.8125V23.1875H21C23.1713 23.1875 24.9375 24.9541 24.9375 27.125V27.5625H3.0625V27.125C3.0625 24.9541 4.82869 23.1875 7 23.1875H9.1875V18.8125H5.25C2.59656 18.8125 0.4375 16.6534 0.4375 14C0.4375 11.3466 2.59656 9.1875 5.25 9.1875H22.75C25.4034 9.1875 27.5625 11.3466 27.5625 14C27.5625 16.6534 25.4034 18.8125 22.75 18.8125ZM7 24.0625C5.45956 24.0625 4.18163 25.2053 3.96856 26.6875H24.031C23.8184 25.2053 22.5404 24.0625 21 24.0625H7ZM17.9375 23.1875V18.8125H10.0625V23.1875H17.9375ZM22.75 10.0625H5.25C3.07869 10.0625 1.3125 11.8287 1.3125 14C1.3125 16.1709 3.07869 17.9375 5.25 17.9375H22.75C24.9213 17.9375 26.6875 16.1709 26.6875 14C26.6875 11.8287 24.9213 10.0625 22.75 10.0625Z" fill="#1F5FBF"/>
<path d="M24.5 15.3125C23.7764 15.3125 23.1875 14.7236 23.1875 14C23.1875 13.2764 23.7764 12.6875 24.5 12.6875C25.2236 12.6875 25.8125 13.2764 25.8125 14C25.8125 14.7236 25.2236 15.3125 24.5 15.3125ZM24.5 13.5625C24.2585 13.5625 24.0625 13.7589 24.0625 14C24.0625 14.2411 24.2585 14.4375 24.5 14.4375C24.7415 14.4375 24.9375 14.2411 24.9375 14C24.9375 13.7589 24.7415 13.5625 24.5 13.5625Z" fill="#1F5FBF"/>
<path d="M21 15.3125C20.2764 15.3125 19.6875 14.7236 19.6875 14C19.6875 13.2764 20.2764 12.6875 21 12.6875C21.7236 12.6875 22.3125 13.2764 22.3125 14C22.3125 14.7236 21.7236 15.3125 21 15.3125ZM21 13.5625C20.7585 13.5625 20.5625 13.7589 20.5625 14C20.5625 14.2411 20.7585 14.4375 21 14.4375C21.2415 14.4375 21.4375 14.2411 21.4375 14C21.4375 13.7589 21.2415 13.5625 21 13.5625Z" fill="#1F5FBF"/>
<path d="M17.5 15.3125C16.7764 15.3125 16.1875 14.7236 16.1875 14C16.1875 13.2764 16.7764 12.6875 17.5 12.6875C18.2236 12.6875 18.8125 13.2764 18.8125 14C18.8125 14.7236 18.2236 15.3125 17.5 15.3125ZM17.5 13.5625C17.2585 13.5625 17.0625 13.7589 17.0625 14C17.0625 14.2411 17.2585 14.4375 17.5 14.4375C17.7415 14.4375 17.9375 14.2411 17.9375 14C17.9375 13.7589 17.7415 13.5625 17.5 13.5625Z" fill="#1F5FBF"/>
<path d="M10.5 16.1875H4.375C3.65137 16.1875 3.0625 15.5986 3.0625 14.875V13.125C3.0625 12.4014 3.65137 11.8125 4.375 11.8125H10.5C11.2236 11.8125 11.8125 12.4014 11.8125 13.125V14.875C11.8125 15.5986 11.2236 16.1875 10.5 16.1875ZM10.9375 13.125C10.9375 12.8835 10.7415 12.6875 10.5 12.6875H4.375C4.1335 12.6875 3.9375 12.8835 3.9375 13.125V14.875C3.9375 15.1161 4.1335 15.3125 4.375 15.3125H10.5C10.7415 15.3125 10.9375 15.1161 10.9375 14.875V13.125Z" fill="#1F5FBF"/>
<path d="M13.9999 1.31241C12.0132 1.31241 10.1455 2.08635 8.74069 3.49072L8.12207 2.8721C9.69226 1.30235 11.7796 0.437412 13.9999 0.437412C16.2202 0.437412 18.3075 1.30235 19.8777 2.8721L19.2591 3.49072C17.8543 2.08635 15.9866 1.31241 13.9999 1.31241Z" fill="#1F5FBF"/>
<path d="M9.35938 4.10989C10.5988 2.87045 12.2464 2.18752 13.9995 2.18752C15.7526 2.18752 17.4002 2.87045 18.6396 4.10989L18.021 4.72852C16.9469 3.65445 15.5189 3.06252 13.9995 3.06252C12.4801 3.06252 11.0521 3.65445 9.978 4.72852L9.35938 4.10989Z" fill="#1F5FBF"/>
<path d="M10.5967 5.34719C11.5351 4.40876 12.7671 3.93976 13.9996 3.93976C15.232 3.93976 16.4644 4.40876 17.4024 5.34719L16.7838 5.96582C15.2482 4.43019 12.7505 4.43019 11.2149 5.96582L10.5967 5.34719Z" fill="#1F5FBF"/>
<path d="M16.4753 6.71243L15.8566 7.33105C14.8329 6.30818 13.1678 6.30818 12.144 7.33105L11.5254 6.71243C12.2079 6.02993 13.1039 5.68912 14.0003 5.68912C14.8968 5.68912 15.7932 6.02993 16.4753 6.71243Z" fill="#1F5FBF"/>
</g>
<defs>
<clipPath id="clip0_3163_27516">
<rect width="28" height="28" fill="white" transform="matrix(1 0 0 -1 0 28)"/>
</clipPath>
</defs>
</svg>
