<svg width="24" height="24" viewBox="0 0 24 24" fill="none" xmlns="http://www.w3.org/2000/svg">
<g clip-path="url(#clip0_6916_6044)">
<path d="M10.672 14.1903L10.672 14.1903C10.3156 14.5441 10.3132 15.1199 10.6669 15.4764C10.8447 15.6556 11.0787 15.7453 11.3125 15.7453C11.544 15.7453 11.7757 15.6574 11.953 15.4816L11.9178 15.4461L11.953 15.4816L13.8928 13.557C14.3114 13.1416 14.5422 12.5886 14.5422 12C14.5422 11.4114 14.3114 10.8584 13.8928 10.443L11.953 8.51845L11.9178 8.55394L11.953 8.51844C11.5965 8.16482 11.0207 8.16695 10.6669 8.52359C10.3132 8.88007 10.3156 9.45588 10.672 9.80951L11.9632 11.0906H1.85938C1.35709 11.0906 0.95 11.4977 0.95 12C0.95 12.5023 1.35709 12.9094 1.85938 12.9094H11.9632L10.672 14.1903ZM23.05 19.5625V4.4375C23.05 2.51439 21.4856 0.95 19.5625 0.95H10.9258C9.00267 0.95 7.43828 2.51439 7.43828 4.4375V6.15625C7.43828 6.65853 7.84537 7.06563 8.34766 7.06563C8.84994 7.06563 9.25703 6.65853 9.25703 6.15625V4.4375C9.25703 3.51745 10.0057 2.76875 10.9258 2.76875H19.5625C20.4825 2.76875 21.2313 3.51745 21.2313 4.4375V19.5625C21.2313 20.4825 20.4825 21.2313 19.5625 21.2313H10.9258C10.0057 21.2313 9.25703 20.4825 9.25703 19.5625V17.8438C9.25703 17.3415 8.84994 16.9344 8.34766 16.9344C7.84537 16.9344 7.43828 17.3415 7.43828 17.8438V19.5625C7.43828 21.4856 9.00267 23.05 10.9258 23.05H19.5625C21.4856 23.05 23.05 21.4856 23.05 19.5625Z" fill="#1F5FBF" stroke="#1F5FBF" stroke-width="0.1"/>
</g>
<defs>
<clipPath id="clip0_6916_6044">
<rect width="24" height="24" fill="white"/>
</clipPath>
</defs>
</svg>
