<svg width="24" height="22" viewBox="0 0 24 22" fill="none" xmlns="http://www.w3.org/2000/svg">
<path d="M12.5 8.02703H6.75M6.75 8.02703H2.12229C1.52449 8.02703 1.05967 8.54567 1.13854 9.13824C1.74257 13.6765 3.15959 21 5 21C7 21 15.5 21 19.5 21C21.9378 21 22.803 13.5531 22.9727 9.02454C22.9932 8.47536 22.5496 8.02703 22 8.02703V8.02703C21.1667 8.02703 19 8.02703 17 8.02703C17 3.7027 16.5 1 15.5 1C14.5 1 11.9 1 9.5 1C7.1 1 6.66667 5.68468 6.75 8.02703Z" stroke="#1F5FBF" stroke-width="2"/>
</svg>
