<svg width="23" height="23" viewBox="0 0 23 23" fill="none" xmlns="http://www.w3.org/2000/svg">
<path d="M4.60019 2.48772L11.5002 9.38772L18.4002 2.50863C18.536 2.3704 18.6991 2.26186 18.8791 2.18988C19.059 2.1179 19.2519 2.08404 19.4456 2.09044C19.8257 2.11504 20.1839 2.27714 20.4532 2.54648C20.7226 2.81582 20.8847 3.17398 20.9093 3.55408C20.9112 3.74097 20.8751 3.9263 20.8032 4.09882C20.7313 4.27134 20.6251 4.42746 20.4911 4.55772L13.5702 11.4995L20.4911 18.4414C20.7629 18.7048 20.9135 19.0686 20.9093 19.445C20.8847 19.8251 20.7226 20.1833 20.4532 20.4526C20.1839 20.7219 19.8257 20.884 19.4456 20.9086C19.2519 20.915 19.059 20.8812 18.8791 20.8092C18.6991 20.7372 18.536 20.6287 18.4002 20.4904L11.5002 13.6114L4.6211 20.4904C4.48524 20.6287 4.32218 20.7372 4.14223 20.8092C3.96228 20.8812 3.76935 20.915 3.57564 20.9086C3.18845 20.8885 2.82244 20.7256 2.54829 20.4514C2.27413 20.1773 2.11125 19.8113 2.0911 19.4241C2.0892 19.2372 2.12529 19.0519 2.19718 18.8793C2.26906 18.7068 2.37524 18.5507 2.50928 18.4204L9.43019 11.4995L2.48837 4.55772C2.35811 4.42571 2.25579 4.26879 2.18753 4.09635C2.11928 3.92391 2.08648 3.73948 2.0911 3.55408C2.11569 3.17398 2.2778 2.81582 2.54713 2.54648C2.81647 2.27714 3.17463 2.11504 3.55473 2.09044C3.74693 2.08132 3.93895 2.11188 4.11882 2.18023C4.29869 2.24858 4.46255 2.35325 4.60019 2.48772Z" fill="white"/>
</svg>
