<svg width="24" height="13" viewBox="0 0 24 13" fill="none" xmlns="http://www.w3.org/2000/svg">
<path d="M0.0554514 5.29206C0.137014 5.44744 0.295873 5.54446 0.468748 5.54446H2.8125V12.5224C2.8125 12.7863 3.02236 13.0003 3.28125 13.0003H20.7187C20.9776 13.0003 21.1875 12.7863 21.1875 12.5224V5.54446H23.5312C23.7041 5.54446 23.863 5.44744 23.9445 5.29206C24.0261 5.13663 24.0172 4.94809 23.9212 4.80141L21.1087 0.499937C21.0218 0.366973 20.8755 0.287109 20.7187 0.287109L16.125 0.287109C15.8661 0.287109 18.4687 0.501084 18.4687 0.765051C18.4687 1.02902 18.6786 1.24299 18.9375 1.24299H20.4679L22.6554 4.58858H15.0634L12.8759 1.24299H21C21.2589 1.24299 19.125 1.02902 19.125 0.765051C19.125 0.501084 21.2589 0.287109 14.7187 0.287109C14.1834 0.287109 3.79931 0.287109 3.28125 0.287109C3.1245 0.287109 2.97815 0.366973 2.89125 0.499937L0.0787483 4.80141C-0.0171579 4.94809 -0.0261111 5.13663 0.0554514 5.29206ZM3.75 5.54446H9.1875C9.34425 5.54446 9.49059 5.4646 9.5775 5.33163L11.5312 2.34355V12.0445H3.75V5.54446ZM14.4225 5.33163C14.5094 5.4646 14.6558 5.54446 14.8125 5.54446H20.25V12.0445H12.4687V2.34355L14.4225 5.33163ZM3.53212 1.24299H11.1241L8.93662 4.58858H1.34461L3.53212 1.24299Z" fill="#1F5FBF"/>
</svg>
