<svg width="20" height="24" viewBox="0 0 20 24" fill="none" xmlns="http://www.w3.org/2000/svg">
<path d="M10.0002 0.799805C10.1858 0.799805 10.3639 0.873555 10.4952 1.00483C10.6264 1.13611 10.7002 1.31415 10.7002 1.4998V3.5998H12.1002C12.6571 3.5998 13.1913 3.82105 13.5851 4.21488C13.9789 4.60871 14.2002 5.14285 14.2002 5.6998V10.5998H17.7002C18.2571 10.5998 18.7913 10.8211 19.1851 11.2149C19.5789 11.6087 19.8002 12.1428 19.8002 12.6998V21.0998C19.8002 21.6568 19.5789 22.1909 19.1851 22.5847C18.7913 22.9786 18.2571 23.1998 17.7002 23.1998H2.3002C1.74324 23.1998 1.2091 22.9786 0.815271 22.5847C0.421445 22.1909 0.200195 21.6568 0.200195 21.0998V12.4422C0.200216 12.0797 0.294097 11.7233 0.472702 11.4078C0.651306 11.0923 0.90855 10.8284 1.2194 10.6418L5.4194 8.1218C5.54007 8.04883 5.66761 7.98787 5.8002 7.9398V5.6998C5.8002 5.14285 6.02144 4.60871 6.41527 4.21488C6.8091 3.82105 7.34324 3.5998 7.9002 3.5998H9.30019V1.4998C9.30019 1.31415 9.37394 1.13611 9.50522 1.00483C9.6365 0.873555 9.81454 0.799805 10.0002 0.799805ZM7.2002 7.9412C7.9884 8.224 8.60019 8.966 8.60019 9.9222V21.7998H11.4002V12.6998C11.4 12.2653 11.5345 11.8415 11.7852 11.4867C12.036 11.1319 12.3906 10.8636 12.8002 10.7188V5.7012C12.8002 5.51555 12.7264 5.33751 12.5952 5.20623C12.4639 5.07495 12.2858 5.0012 12.1002 5.0012H7.9002C7.71454 5.0012 7.5365 5.07495 7.40522 5.20623C7.27394 5.33751 7.2002 5.51555 7.2002 5.7012V7.9412ZM13.5002 11.9998C13.3145 11.9998 13.1365 12.0736 13.0052 12.2048C12.8739 12.3361 12.8002 12.5142 12.8002 12.6998V21.7998H17.7002C17.8858 21.7998 18.0639 21.7261 18.1952 21.5948C18.3264 21.4635 18.4002 21.2855 18.4002 21.0998V12.6998C18.4002 12.5142 18.3264 12.3361 18.1952 12.2048C18.0639 12.0736 17.8858 11.9998 17.7002 11.9998H13.5002ZM6.1404 9.3216L1.9404 11.8416C1.83642 11.9039 1.75041 11.9921 1.69077 12.0977C1.63114 12.2032 1.59993 12.3224 1.6002 12.4436V21.0998C1.6002 21.2855 1.67395 21.4635 1.80522 21.5948C1.9365 21.7261 2.11454 21.7998 2.3002 21.7998H7.2002V9.9222C7.20022 9.79835 7.16739 9.67671 7.10504 9.56969C7.0427 9.46268 6.95308 9.37412 6.84532 9.31305C6.73757 9.25199 6.61555 9.22061 6.4917 9.22211C6.36786 9.22361 6.24663 9.25794 6.1404 9.3216Z" fill="#1F5FBF"/>
</svg>
