<svg width="22" height="22" viewBox="0 0 22 22" fill="none" xmlns="http://www.w3.org/2000/svg">
<g clip-path="url(#clip0_3578_87)">
<path d="M21.0647 0.550781H5.69764C5.18137 0.551383 4.76301 0.969744 4.76241 1.48601V5.72463L4.05969 4.67057C3.73804 4.18537 3.09115 4.0398 2.59268 4.34048L1.14694 5.2097C0.673481 5.48752 0.326165 5.93803 0.177973 6.46659C-0.349427 8.38695 0.0419005 11.6955 4.89813 16.5524C8.76004 20.4103 11.6394 21.4494 13.624 21.4494C14.0834 21.4515 14.5411 21.3918 14.9847 21.2719C15.513 21.1237 15.9635 20.7768 16.2419 20.304L17.11 18.8568C17.4095 18.3587 17.264 17.7131 16.7799 17.3915L13.3181 15.0839C12.8432 14.7698 12.2067 14.8731 11.8555 15.3212L10.8476 16.6169C10.7422 16.7556 10.5512 16.796 10.3987 16.7119L10.2069 16.6063C9.57566 16.2623 8.79008 15.8339 7.2035 14.2473C7.03184 14.0756 6.87634 13.915 6.73039 13.7613H21.0647C21.5797 13.7617 21.9979 13.3455 22 12.8305V1.48601C21.9993 0.969744 21.581 0.551383 21.0647 0.550781ZM9.85588 17.2504L10.0422 17.3527C10.5105 17.6146 11.1001 17.4931 11.4267 17.0674L12.4346 15.7716C12.5491 15.6257 12.7565 15.592 12.9113 15.6942L16.3731 18.0019C16.5304 18.1067 16.5777 18.3165 16.4806 18.4786L15.6125 19.9259C15.4312 20.2367 15.1367 20.4654 14.7906 20.564C13.0569 21.0408 10.0228 20.6374 5.41775 16.032C0.812735 11.4267 0.410835 8.39279 0.886487 6.66059C0.985038 6.31457 1.21356 6.02007 1.52426 5.8387L2.9715 4.97022C3.13366 4.87334 3.34336 4.92058 3.44827 5.07767L5.75699 8.53948C5.85937 8.69429 5.82571 8.9018 5.67958 9.01625L4.38346 10.0245C3.95783 10.351 3.83629 10.9404 4.09812 11.4086L4.20079 11.5949C4.56754 12.2676 5.02342 13.1045 6.68521 14.7659C8.34705 16.4273 9.18365 16.8836 9.85588 17.2504ZM21.2665 12.8305C21.2653 12.9409 21.175 13.0294 21.0648 13.0286H6.06876C5.59242 12.4839 5.18167 11.8852 4.84488 11.2447L4.73924 11.0521C4.655 10.9 4.69531 10.7091 4.83388 10.6039L6.13001 9.59574C6.57828 9.2446 6.68156 8.60799 6.3673 8.13311L5.49589 6.82525V1.48601C5.49529 1.43233 5.51635 1.38067 5.5543 1.34272C5.59225 1.30477 5.64391 1.28371 5.69759 1.28431H21.0647C21.1184 1.28371 21.1701 1.30477 21.208 1.34272C21.246 1.38067 21.267 1.43233 21.2664 1.48601V12.8305H21.2665Z" fill="#1F5FBF"/>
<path d="M19.8016 2.24841L13.672 6.89706C13.4985 7.02307 13.2637 7.02307 13.0903 6.89706L6.96293 2.24841C6.8015 2.12596 6.57135 2.15759 6.44894 2.31903C6.32649 2.48046 6.35813 2.71061 6.51956 2.83302L12.6477 7.48127C13.0837 7.80336 13.6787 7.80336 14.1147 7.48127L20.2447 2.83302C20.3222 2.77422 20.3733 2.68697 20.3865 2.59053C20.3996 2.49408 20.374 2.39635 20.3151 2.31885C20.1927 2.15772 19.9629 2.12622 19.8016 2.24841Z" fill="#1F5FBF"/>
<path d="M10.2512 7.51254L6.49417 11.5359C6.35604 11.684 6.36416 11.9162 6.51231 12.0543C6.66046 12.1924 6.89259 12.1843 7.03073 12.0362L10.7878 8.01101C10.9119 7.86127 10.8975 7.64066 10.7551 7.50824C10.6125 7.37582 10.3915 7.37771 10.2512 7.51254Z" fill="#1F5FBF"/>
<path d="M16.5352 7.51315C16.3971 7.365 16.165 7.35684 16.0168 7.49502C15.8686 7.63315 15.8605 7.86524 15.9986 8.01343L19.7546 12.0368C19.8927 12.1849 20.1248 12.1931 20.273 12.0549C20.4212 11.9168 20.4293 11.6847 20.2912 11.5365L16.5352 7.51315Z" fill="#1F5FBF"/>
</g>
<defs>
<clipPath id="clip0_3578_87">
<rect width="22" height="22" fill="white"/>
</clipPath>
</defs>
</svg>
