<svg width="22" height="22" viewBox="0 0 22 22" fill="none" xmlns="http://www.w3.org/2000/svg">
<g clip-path="url(#clip0_3578_65)">
<path d="M0.0695933 2.01896L1.53682 4.58645C1.58631 4.67321 1.66915 4.73598 1.76601 4.76027L3.13486 5.10249L7.82971 9.79733L8.34846 9.27873L3.58013 4.51056C3.5332 4.46348 3.47436 4.43013 3.40993 4.41399L2.09465 4.084L0.845454 1.89674L1.91645 0.825747L4.10461 2.07615L4.43475 3.39143C4.45075 3.45601 4.48424 3.515 4.53117 3.56193L9.2995 8.33026L9.81809 7.81151L5.12325 3.11666L4.78104 1.74857C4.75674 1.65155 4.69397 1.56856 4.60722 1.51892L2.03957 0.051848C1.89638 -0.0296309 1.71622 -0.00548895 1.59944 0.110845L0.132362 1.57807C0.0143687 1.6941 -0.0112821 1.87456 0.0695933 2.01896Z" fill="#1F5FBF"/>
<path d="M15.319 7.22954L7.24977 15.299L6.73102 14.7802L14.8004 6.71094L15.319 7.22954Z" fill="#1F5FBF"/>
<path d="M5.83735 15.5832C5.77096 15.4727 5.65176 15.4053 5.5229 15.4053H3.32221C3.19351 15.4053 3.07416 15.4727 3.00792 15.5832L1.9075 17.417C1.83764 17.5332 1.83764 17.6785 1.9075 17.7949L3.00792 19.6287C3.07416 19.739 3.19351 19.8066 3.32221 19.8066H5.5229C5.65176 19.8066 5.77096 19.739 5.83735 19.6287L6.93762 17.7949C7.00748 17.6785 7.00748 17.5332 6.93762 17.417L5.83735 15.5832ZM5.31543 19.073H3.52983L2.64956 17.606L3.52983 16.1387H5.31543L6.19571 17.606L5.31543 19.073Z" fill="#1F5FBF"/>
<path d="M17.6278 8.80364C20.0503 8.81179 22.0209 6.85448 22.029 4.43199C22.0302 4.06323 21.985 3.69597 21.8943 3.33852C21.8454 3.14191 21.6464 3.02226 21.4498 3.07114C21.3852 3.08729 21.3264 3.12063 21.2793 3.16756L18.9961 5.44927L17.1845 4.84557L16.5804 3.03448L18.8636 0.750805C19.0068 0.607462 19.0066 0.375247 18.8633 0.232056C18.8161 0.184828 18.7566 0.151331 18.6916 0.135337C16.3423 -0.45961 13.9557 0.962499 13.3607 3.31166C13.2704 3.66805 13.2252 4.03441 13.2264 4.40212C13.2274 4.69091 13.2571 4.97881 13.3156 5.26157L5.28286 13.2942C5.00009 13.2358 4.7122 13.2061 4.42356 13.205C1.99262 13.205 0.0220337 15.1756 0.0220337 17.6065C0.0220337 20.0373 1.99262 22.0079 4.42356 22.0079C6.85434 22.0079 8.82493 20.0373 8.82493 17.6065C8.82402 17.3177 8.79415 17.0298 8.73575 16.7471L10.6588 14.824L11.4998 15.6651C11.6432 15.8083 11.8753 15.8083 12.0186 15.6651L12.2019 15.4816C12.3628 15.3218 12.6227 15.3218 12.7836 15.4816C12.9443 15.6418 12.9446 15.902 12.7843 16.0627C12.7842 16.0628 12.7839 16.0631 12.7836 16.0634L12.6003 16.2467C12.4571 16.3899 12.4571 16.6221 12.6003 16.7653L16.9757 21.1408C18.1265 22.3021 20.0008 22.3106 21.1622 21.1598C22.3234 20.009 22.3319 18.1345 21.1811 16.9733C21.1749 16.9669 21.1685 16.9606 21.1622 16.9542L16.7868 12.579C16.6436 12.4358 16.4114 12.4358 16.2682 12.579L16.0849 12.7623C15.9239 12.9222 15.664 12.9222 15.503 12.7623C15.3425 12.6021 15.342 12.3419 15.5023 12.1814C15.5026 12.1811 15.5029 12.1809 15.503 12.1806L15.6865 11.9972C15.8297 11.854 15.8297 11.6218 15.6865 11.4786L14.8455 10.6375L16.7685 8.71447C17.0513 8.77286 17.3392 8.80273 17.6278 8.80364ZM19.0689 21.2744C18.8025 21.274 18.5383 21.2259 18.2889 21.1322L21.1534 18.2674C21.5857 19.4173 21.0041 20.6999 19.8542 21.1322C19.6032 21.2265 19.3372 21.2747 19.0689 21.2744ZM14.9137 11.7416C14.5075 12.2261 14.5712 12.9482 15.0557 13.3542C15.4815 13.7111 16.1021 13.7108 16.5274 13.3532L20.6436 17.473C20.6883 17.5178 20.7301 17.565 20.7705 17.613L17.6345 20.7491C17.5863 20.7088 17.5391 20.667 17.4943 20.6222L13.3749 16.5025C13.7811 16.018 13.7174 15.2959 13.2329 14.8898C12.8071 14.5328 12.1864 14.5333 11.761 14.8907L11.1742 14.3039L14.3267 11.1561L14.9137 11.7416ZM16.3948 8.05252L8.07411 16.3715C7.98283 16.4627 7.94616 16.595 7.97724 16.7201C8.48045 18.6962 7.28633 20.7062 5.31002 21.2093C3.33385 21.7125 1.32389 20.5183 0.820678 18.542C0.317621 16.5659 1.51174 14.5559 3.48806 14.0527C4.08587 13.9006 4.7122 13.9006 5.31002 14.0527C5.4351 14.0833 5.56713 14.0467 5.65857 13.956L13.9773 5.63683C14.0684 5.54569 14.1051 5.41336 14.0737 5.28843C13.5739 3.33535 14.7521 1.34696 16.7051 0.847071C17.0742 0.752766 17.456 0.716554 17.8362 0.740243L15.9014 2.67582C15.8031 2.7739 15.7687 2.9192 15.8126 3.05093L16.5461 5.25176C16.5828 5.36116 16.6688 5.44716 16.7783 5.48352L18.9792 6.21714C19.1107 6.26104 19.256 6.22679 19.3543 6.12872L21.2891 4.19389C21.2935 4.26391 21.2957 4.33316 21.2957 4.40212C21.306 6.41751 19.6806 8.05962 17.6652 8.07003C17.3537 8.07154 17.0431 8.03321 16.7414 7.95596C16.6163 7.92472 16.4839 7.96124 16.3928 8.05237H16.3948V8.05252Z" fill="#1F5FBF"/>
<path d="M18.9871 18.4471L18.4683 18.9658L14.8006 15.298L15.3192 14.7793L18.9871 18.4471Z" fill="#1F5FBF"/>
</g>
<defs>
<clipPath id="clip0_3578_65">
<rect width="22" height="22" fill="white"/>
</clipPath>
</defs>
</svg>
