<svg width="22" height="22" viewBox="0 0 22 22" fill="none" xmlns="http://www.w3.org/2000/svg">
<g clip-path="url(#clip0_3578_78)">
<path d="M11 22C4.93442 22 0 17.0656 0 11C0 4.93442 4.93442 0 11 0C17.0656 0 22 4.93442 22 11C22 17.0656 17.0656 22 11 22ZM11 0.916667C5.44042 0.916667 0.916667 5.44042 0.916667 11C0.916667 16.5596 5.44042 21.0833 11 21.0833C16.5596 21.0833 21.0833 16.5596 21.0833 11C21.0833 5.44042 16.5596 0.916667 11 0.916667Z" fill="#1F5FBF"/>
<path d="M11 7.33301C10.2419 7.33301 9.625 6.71609 9.625 5.95801C9.625 5.19992 10.2419 4.58301 11 4.58301C11.7581 4.58301 12.375 5.19992 12.375 5.95801C12.375 6.71609 11.7581 7.33301 11 7.33301ZM11 5.49967C10.7479 5.49967 10.5417 5.70501 10.5417 5.95801C10.5417 6.21101 10.7479 6.41634 11 6.41634C11.2521 6.41634 11.4583 6.21101 11.4583 5.95801C11.4583 5.70501 11.2521 5.49967 11 5.49967Z" fill="#1F5FBF"/>
<path d="M11 16.5003C10.747 16.5003 10.5417 16.295 10.5417 16.042V10.0837H9.62502C9.37202 10.0837 9.16669 9.87833 9.16669 9.62533C9.16669 9.37233 9.37202 9.16699 9.62502 9.16699H11C11.253 9.16699 11.4584 9.37233 11.4584 9.62533V16.042C11.4584 16.295 11.253 16.5003 11 16.5003Z" fill="#1F5FBF"/>
<path d="M12.8333 16.4997H9.16665C8.91365 16.4997 8.70831 16.2943 8.70831 16.0413C8.70831 15.7883 8.91365 15.583 9.16665 15.583H12.8333C13.0863 15.583 13.2916 15.7883 13.2916 16.0413C13.2916 16.2943 13.0863 16.4997 12.8333 16.4997Z" fill="#1F5FBF"/>
</g>
<defs>
<clipPath id="clip0_3578_78">
<rect width="22" height="22" fill="white"/>
</clipPath>
</defs>
</svg>
