<svg width="22" height="22" viewBox="0 0 22 22" fill="none" xmlns="http://www.w3.org/2000/svg">
<g clip-path="url(#clip0_3578_71)">
<path d="M21.9293 4.77049C21.8745 4.70208 21.7942 4.6589 21.7069 4.65099L3.91429 3.03609C3.90432 2.79117 3.80717 2.54913 3.6206 2.36256L1.72614 0.468059C1.53519 0.277106 1.28124 0.171875 1.01114 0.171875C0.741041 0.171875 0.487138 0.277106 0.296184 0.468059C0.105188 0.659056 0 0.913001 0 1.1831C0 1.45321 0.105188 1.70711 0.296184 1.89811L2.19064 3.79251C2.38159 3.98351 2.63554 4.0887 2.90564 4.0887C3.00726 4.0887 3.1066 4.07379 3.20118 4.04504L5.89477 12.9644C6.11412 13.6907 6.77099 14.1731 7.51856 14.1731C7.56084 14.1731 7.60351 14.1716 7.6463 14.1684L19.8277 13.2771C20.4664 13.2304 20.9901 12.7355 21.0729 12.1004L21.9973 5.01365C22.0087 4.92672 21.9841 4.83894 21.9293 4.77049ZM3.16483 3.33674C3.09556 3.40597 3.00352 3.44412 2.9056 3.44412C2.80767 3.44412 2.71563 3.40601 2.64636 3.33674L0.751912 1.44229C0.682646 1.37307 0.644533 1.28099 0.644533 1.1831C0.644533 1.08522 0.682646 0.993095 0.751912 0.92383C0.821177 0.854607 0.913217 0.81645 1.01114 0.81645C1.10907 0.81645 1.20111 0.854607 1.27037 0.92383L3.16483 2.81828C3.30778 2.96124 3.30778 3.19383 3.16483 3.33674ZM11.0978 4.33525L11.2431 6.69304L8.23051 6.5833L7.75514 4.03189L11.0978 4.33525ZM3.76098 3.66932L7.08827 3.97135L7.57042 6.55928L4.60102 6.45108L3.76098 3.66932ZM5.7198 10.1556L4.79799 7.10322L7.69142 7.20862L8.23008 10.0998L5.7198 10.1556ZM7.59921 13.5256C7.10249 13.5618 6.65566 13.2545 6.51176 12.778L5.9132 10.796L8.3497 10.7419L8.85128 13.434L7.59921 13.5256ZM8.35151 7.23269L11.2829 7.33946L11.4487 10.0283L8.88299 10.0853L8.35151 7.23269ZM9.49805 13.3866L9.00257 10.7273L11.4883 10.6721L11.6459 13.2295L9.49805 13.3866ZM14.5682 13.0156L12.2888 13.1824L12.1332 10.6577L14.6324 10.6022L14.5682 13.0156ZM14.6496 9.95717L12.0935 10.014L11.9302 7.36305L14.7159 7.4645L14.6496 9.95717ZM14.7331 6.82014L11.8903 6.71659L11.7472 4.39421L14.7903 4.67041L14.7331 6.82014ZM17.6685 12.7888L15.2142 12.9684L15.2776 10.5879L17.8502 10.5307L17.6685 12.7888ZM17.9022 9.88489L15.2947 9.94282L15.3601 7.48796L18.0871 7.58731L17.9022 9.88489ZM18.1388 6.94424L15.3772 6.84365L15.4335 4.72881L18.2962 4.98864L18.1388 6.94424ZM20.4338 12.0171C20.3904 12.3501 20.1157 12.6097 19.7807 12.6343L18.319 12.7412L18.498 10.5163L20.6358 10.4688L20.4338 12.0171ZM20.7201 9.82225L18.55 9.8705L18.7318 7.61081L20.9978 7.69335L20.7201 9.82225ZM21.0815 7.0514L18.7835 6.9677L18.9381 5.04686L21.3149 5.26261L21.0815 7.0514Z" fill="#1F5FBF"/>
<path d="M18.9001 18.674V17.9018H19.6111C19.7891 17.9018 19.9334 17.7575 19.9334 17.5795C19.9334 17.4015 19.7891 17.2572 19.6111 17.2572H6.18923C6.06381 17.2572 5.95222 17.1972 5.88317 17.0924C5.81412 16.9877 5.80282 16.8615 5.85223 16.7462L6.76252 14.6222C6.83265 14.4586 6.75685 14.2691 6.59327 14.199C6.42969 14.1289 6.24024 14.2046 6.17011 14.3683L5.25982 16.4923C5.12554 16.8056 5.15742 17.1626 5.34507 17.4472C5.53271 17.7318 5.84828 17.9018 6.18923 17.9018H6.54446V18.674C5.95209 18.8191 5.51114 19.3542 5.51114 19.9906C5.51114 20.7381 6.11924 21.3462 6.86672 21.3462C7.61421 21.3462 8.2223 20.7381 8.2223 19.9906C8.2223 19.3542 7.78136 18.8191 7.18899 18.674V17.9018H18.2555V18.674C17.6632 18.8191 17.2222 19.3542 17.2222 19.9906C17.2222 20.7381 17.8303 21.3462 18.5778 21.3462C19.3253 21.3462 19.9334 20.7381 19.9334 19.9906C19.9334 19.3542 19.4924 18.8191 18.9001 18.674ZM7.57777 19.9906C7.57777 20.3826 7.25881 20.7016 6.86672 20.7016C6.47463 20.7016 6.15568 20.3826 6.15568 19.9906C6.15568 19.5985 6.47463 19.2795 6.86672 19.2795C7.25881 19.2795 7.57777 19.5985 7.57777 19.9906ZM18.5778 20.7016C18.1857 20.7016 17.8667 20.3826 17.8667 19.9906C17.8667 19.5985 18.1857 19.2795 18.5778 19.2795C18.9699 19.2795 19.2888 19.5985 19.2888 19.9906C19.2888 20.3826 18.9699 20.7016 18.5778 20.7016Z" fill="#1F5FBF"/>
</g>
<defs>
<clipPath id="clip0_3578_71">
<rect width="22" height="22" fill="white"/>
</clipPath>
</defs>
</svg>
