<svg width="22" height="22" viewBox="0 0 22 22" fill="none" xmlns="http://www.w3.org/2000/svg">
<g clip-path="url(#clip0_3578_95)">
<path d="M19.7083 0H13.8939C12.7921 0 11.7563 0.429 10.9771 1.20815L0.781902 11.4033C0.27775 11.9075 0 12.5776 0 13.2935C0 14.0058 0.27775 14.6758 0.781902 15.18L6.82 21.2181C7.32415 21.7222 7.99425 22 8.71015 22C9.4224 22 10.0925 21.7222 10.5967 21.2181L20.7918 11.0229C21.571 10.2437 22 9.2079 22 8.1061V2.29165C22 1.0285 20.9715 0 19.7083 0ZM21.0833 8.1061C21.0833 8.9632 20.7497 9.76894 20.1447 10.3739L9.9486 20.57C9.2895 21.2291 8.1336 21.2337 7.469 20.57L1.43 14.531C1.0991 14.201 0.916652 13.761 0.916652 13.2898C0.916652 12.8223 1.09905 12.3823 1.43 12.0514L11.6252 1.85625C12.232 1.25035 13.0368 0.916652 13.8939 0.916652H19.7083C20.4664 0.916652 21.0833 1.53355 21.0833 2.29165V8.1061H21.0833Z" fill="#1F5FBF"/>
<path d="M16.9583 2.75C15.6952 2.75 14.6667 3.7785 14.6667 5.04165C14.6667 6.3048 15.6952 7.3333 16.9583 7.3333C18.2215 7.3333 19.25 6.30485 19.25 5.04165C19.25 3.7785 18.2215 2.75 16.9583 2.75ZM16.9583 6.41665C16.2002 6.41665 15.5833 5.79975 15.5833 5.04165C15.5833 4.28355 16.2002 3.66665 16.9583 3.66665C17.7164 3.66665 18.3333 4.28355 18.3333 5.04165C18.3333 5.79975 17.7164 6.41665 16.9583 6.41665Z" fill="#1F5FBF"/>
</g>
<path d="M10.9112 10.5111C9.90233 10.2489 9.57789 9.97778 9.57789 9.55556C9.57789 9.07111 10.0268 8.73333 10.7779 8.73333C11.409 8.73333 11.7246 8.97333 11.8401 9.35556C11.8934 9.53333 12.0401 9.66667 12.2268 9.66667H12.3601C12.6534 9.66667 12.8623 9.37778 12.7601 9.10222C12.5734 8.57778 12.1379 8.14222 11.4446 7.97333V7.66667C11.4446 7.29778 11.1468 7 10.7779 7C10.409 7 10.1112 7.29778 10.1112 7.66667V7.96C9.249 8.14667 8.55566 8.70667 8.55566 9.56444C8.55566 10.5911 9.40455 11.1022 10.6446 11.4C11.7557 11.6667 11.9779 12.0578 11.9779 12.4711C11.9779 12.7778 11.7601 13.2667 10.7779 13.2667C10.0446 13.2667 9.66678 13.0044 9.52011 12.6311C9.45344 12.4578 9.30233 12.3333 9.12011 12.3333H8.99566C8.69789 12.3333 8.489 12.6356 8.60011 12.9111C8.85344 13.5289 9.44455 13.8933 10.1112 14.0356V14.3333C10.1112 14.7022 10.409 15 10.7779 15C11.1468 15 11.4446 14.7022 11.4446 14.3333V14.0444C12.3112 13.88 13.0001 13.3778 13.0001 12.4667C13.0001 11.2044 11.9201 10.7733 10.9112 10.5111Z" fill="#1F5FBF"/>
<defs>
<clipPath id="clip0_3578_95">
<rect width="22" height="22" fill="white"/>
</clipPath>
</defs>
</svg>
