<svg width="30" height="11" viewBox="0 0 30 11" fill="none" xmlns="http://www.w3.org/2000/svg">
<path opacity="0.5" d="M5.22894 1.02832H1.45844V8H0.421816V0.179688H5.22894V1.02832ZM5.18318 5.04053C5.18318 4.47119 5.29419 3.95915 5.51619 3.50439C5.74178 3.04964 6.0533 2.69873 6.45076 2.45166C6.8518 2.20459 7.30835 2.08105 7.82039 2.08105C8.61173 2.08105 9.25089 2.35498 9.73787 2.90283C10.2284 3.45068 10.4737 4.17936 10.4737 5.08887V5.15869C10.4737 5.72445 10.3645 6.23291 10.1461 6.68408C9.93123 7.13167 9.6215 7.48079 9.21687 7.73145C8.81583 7.9821 8.35392 8.10742 7.83113 8.10742C7.04337 8.10742 6.40421 7.8335 5.91365 7.28564C5.42667 6.73779 5.18318 6.0127 5.18318 5.11035V5.04053ZM6.18221 5.15869C6.18221 5.80322 6.33081 6.32064 6.62801 6.71094C6.92879 7.10124 7.32983 7.29639 7.83113 7.29639C8.33602 7.29639 8.73706 7.09945 9.03426 6.70557C9.33146 6.30811 9.48006 5.75309 9.48006 5.04053C9.48006 4.40316 9.32788 3.88753 9.02352 3.49365C8.72273 3.09619 8.32169 2.89746 7.82039 2.89746C7.32983 2.89746 6.93416 3.09261 6.63338 3.48291C6.3326 3.87321 6.18221 4.4318 6.18221 5.15869ZM16.739 5.15869C16.739 6.04313 16.5367 6.7557 16.1321 7.29639C15.7274 7.83708 15.1796 8.10742 14.4885 8.10742C13.7831 8.10742 13.2281 7.88363 12.8235 7.43604V10.2344H11.8298V2.18848H12.7375L12.7859 2.83301C13.1905 2.33171 13.7527 2.08105 14.4724 2.08105C15.1706 2.08105 15.7221 2.34424 16.1267 2.87061C16.5349 3.39697 16.739 4.12923 16.739 5.06738V5.15869ZM15.7453 5.0459C15.7453 4.39062 15.6057 3.87321 15.3264 3.49365C15.0471 3.1141 14.664 2.92432 14.177 2.92432C13.5754 2.92432 13.1242 3.19108 12.8235 3.72461V6.50146C13.1207 7.03141 13.5754 7.29639 14.1877 7.29639C14.664 7.29639 15.0417 7.1084 15.321 6.73242C15.6039 6.35286 15.7453 5.79069 15.7453 5.0459ZM17.8534 5.04053C17.8534 4.47119 17.9644 3.95915 18.1864 3.50439C18.412 3.04964 18.7235 2.69873 19.121 2.45166C19.522 2.20459 19.9785 2.08105 20.4906 2.08105C21.2819 2.08105 21.9211 2.35498 22.4081 2.90283C22.8986 3.45068 23.1439 4.17936 23.1439 5.08887V5.15869C23.1439 5.72445 23.0347 6.23291 22.8163 6.68408C22.6014 7.13167 22.2917 7.48079 21.8871 7.73145C21.486 7.9821 21.0241 8.10742 20.5013 8.10742C19.7136 8.10742 19.0744 7.8335 18.5838 7.28564C18.0969 6.73779 17.8534 6.0127 17.8534 5.11035V5.04053ZM18.8524 5.15869C18.8524 5.80322 19.001 6.32064 19.2982 6.71094C19.599 7.10124 20 7.29639 20.5013 7.29639C21.0062 7.29639 21.4073 7.09945 21.7045 6.70557C22.0017 6.30811 22.1503 5.75309 22.1503 5.04053C22.1503 4.40316 21.9981 3.88753 21.6937 3.49365C21.3929 3.09619 20.9919 2.89746 20.4906 2.89746C20 2.89746 19.6044 3.09261 19.3036 3.48291C19.0028 3.87321 18.8524 4.4318 18.8524 5.15869ZM24.0649 7.18896L24.4087 6.76465C24.7954 6.26335 25.0156 5.51139 25.0693 4.50879L25.1606 2.18848H28.9043V7.18896H29.6509V9.70801H28.6572V8H24.6021V9.70801H23.6084L23.6138 7.18896H24.0649ZM25.2412 7.18896H27.9106V3.10693H26.1221L26.063 4.49268C26.0021 5.64925 25.7282 6.54801 25.2412 7.18896Z" fill="#1F5FBF"/>
</svg>
