<svg width="6" height="4" viewBox="0 0 6 4" fill="none" xmlns="http://www.w3.org/2000/svg">
<path d="M4.78162 0.182675C4.86614 0.102209 4.97862 0.0577237 5.09531 0.0586066C5.21201 0.0594896 5.3238 0.105672 5.40709 0.187408C5.49039 0.269145 5.53867 0.380042 5.54175 0.4967C5.54484 0.613358 5.50248 0.726652 5.42362 0.812676L3.02962 3.80668C2.98846 3.85101 2.93877 3.8866 2.88354 3.9113C2.82831 3.93599 2.76867 3.9493 2.70817 3.95042C2.64768 3.95154 2.58759 3.94045 2.53148 3.91782C2.47537 3.89518 2.4244 3.86146 2.38162 3.81868L0.794024 2.23108C0.749812 2.18988 0.71435 2.1402 0.689755 2.085C0.66516 2.0298 0.651935 1.97021 0.650869 1.90979C0.649803 1.84937 0.660918 1.78935 0.68355 1.73332C0.706183 1.67728 0.73987 1.62638 0.782601 1.58365C0.825332 1.54092 0.876232 1.50723 0.932265 1.4846C0.988298 1.46197 1.04832 1.45085 1.10874 1.45192C1.16916 1.45299 1.22875 1.46621 1.28395 1.49081C1.33915 1.5154 1.38883 1.55086 1.43002 1.59508L2.68642 2.85088L4.77022 0.195876C4.77398 0.191256 4.77798 0.186849 4.78222 0.182675H4.78162Z" fill="#1F5FBF"/>
</svg>
