<svg width="110" height="40" viewBox="0 0 110 40" fill="none" xmlns="http://www.w3.org/2000/svg">
<path d="M18.1116 10.251C18.3243 9.94167 18.5563 9.729 18.8076 9.613C19.059 9.47767 19.407 9.41 19.8516 9.41C20.2963 9.41 20.6443 9.53567 20.8956 9.787C21.1663 10.0383 21.3016 10.396 21.3016 10.86V28.666C21.3016 29.1107 21.1663 29.4683 20.8956 29.739C20.625 30.0097 20.2673 30.145 19.8226 30.145C19.378 30.145 19.0203 30.0097 18.7496 29.739C18.4789 29.4683 18.3436 29.1107 18.3436 28.666V13.992L7.43962 29.072C7.13028 29.4973 6.84028 29.7873 6.56962 29.942C6.29895 30.0773 5.95095 30.145 5.52562 30.145C5.08095 30.145 4.72328 30.0193 4.45262 29.768C4.20128 29.5167 4.07562 29.159 4.07562 28.695V10.889C4.07562 10.4443 4.21095 10.0867 4.48162 9.816C4.75228 9.54533 5.10995 9.41 5.55462 9.41C5.99928 9.41 6.35695 9.54533 6.62762 9.816C6.89828 10.0867 7.03362 10.4443 7.03362 10.889V25.534L18.1116 10.251Z" fill="#1F5FBF"/>
<path d="M30.9822 30.203C29.5902 30.203 28.3625 29.9033 27.2992 29.304C26.2552 28.7047 25.4432 27.854 24.8632 26.752C24.3025 25.6307 24.0222 24.3353 24.0222 22.866C24.0222 21.3773 24.3025 20.082 24.8632 18.98C25.4432 17.8587 26.2552 16.9983 27.2992 16.399C28.3625 15.7997 29.5902 15.5 30.9822 15.5C32.3742 15.5 33.5922 15.7997 34.6362 16.399C35.6995 16.9983 36.5115 17.8587 37.0722 18.98C37.6522 20.082 37.9422 21.3773 37.9422 22.866C37.9422 24.3353 37.6522 25.6307 37.0722 26.752C36.5115 27.854 35.6995 28.7047 34.6362 29.304C33.5922 29.9033 32.3742 30.203 30.9822 30.203ZM30.9822 27.883C32.2775 27.883 33.2635 27.4577 33.9402 26.607C34.6362 25.7563 34.9842 24.5093 34.9842 22.866C34.9842 21.242 34.6362 20.0047 33.9402 19.154C33.2442 18.284 32.2582 17.849 30.9822 17.849C29.7062 17.849 28.7202 18.284 28.0242 19.154C27.3282 20.0047 26.9802 21.242 26.9802 22.866C26.9802 24.5093 27.3185 25.7563 27.9952 26.607C28.6912 27.4577 29.6868 27.883 30.9822 27.883ZM41.7543 30.145C41.3097 30.145 40.952 30.0193 40.6813 29.768C40.4107 29.5167 40.2753 29.1783 40.2753 28.753V16.95C40.2753 16.5247 40.4107 16.1863 40.6813 15.935C40.952 15.6837 41.3097 15.558 41.7543 15.558C42.199 15.558 42.547 15.6837 42.7983 15.935C43.069 16.1863 43.2043 16.5247 43.2043 16.95V21.59H50.1643V16.95C50.1643 16.5247 50.2997 16.1863 50.5703 15.935C50.841 15.6837 51.1987 15.558 51.6433 15.558C52.088 15.558 52.436 15.6837 52.6873 15.935C52.958 16.1863 53.0933 16.5247 53.0933 16.95L53.1223 28.666C53.1223 29.1107 52.987 29.4683 52.7163 29.739C52.4457 30.0097 52.088 30.145 51.6433 30.145C51.1987 30.145 50.841 30.0097 50.5703 29.739C50.2997 29.4683 50.1643 29.1107 50.1643 28.666V23.91H43.2043V28.753C43.2043 29.1783 43.069 29.5167 42.7983 29.768C42.547 30.0193 42.199 30.145 41.7543 30.145ZM82.7347 30.203C81.3427 30.203 80.1151 29.9033 79.0517 29.304C78.0077 28.7047 77.1957 27.854 76.6157 26.752C76.0551 25.6307 75.7747 24.3353 75.7747 22.866C75.7747 21.3773 76.0551 20.082 76.6157 18.98C77.1957 17.8587 78.0077 16.9983 79.0517 16.399C80.1151 15.7997 81.3427 15.5 82.7347 15.5C84.1267 15.5 85.3447 15.7997 86.3887 16.399C87.4521 16.9983 88.2641 17.8587 88.8247 18.98C89.4047 20.082 89.6947 21.3773 89.6947 22.866C89.6947 24.3353 89.4047 25.6307 88.8247 26.752C88.2641 27.854 87.4521 28.7047 86.3887 29.304C85.3447 29.9033 84.1267 30.203 82.7347 30.203ZM82.7347 27.883C84.0301 27.883 85.0161 27.4577 85.6927 26.607C86.3887 25.7563 86.7367 24.5093 86.7367 22.866C86.7367 21.242 86.3887 20.0047 85.6927 19.154C84.9967 18.284 84.0107 17.849 82.7347 17.849C81.4587 17.849 80.4727 18.284 79.7767 19.154C79.0807 20.0047 78.7327 21.242 78.7327 22.866C78.7327 24.5093 79.0711 25.7563 79.7477 26.607C80.4437 27.4577 81.4394 27.883 82.7347 27.883ZM105.571 15.558C106.035 15.558 106.402 15.6837 106.673 15.935C106.944 16.1863 107.079 16.5343 107.079 16.979V28.811C107.079 29.1977 106.953 29.5167 106.702 29.768C106.451 30.0193 106.122 30.145 105.716 30.145C105.329 30.145 105.001 30.0193 104.73 29.768C104.479 29.5167 104.353 29.188 104.353 28.782L104.382 20.401L100.873 26.868C100.738 27.1193 100.554 27.3223 100.322 27.477C100.09 27.6123 99.8385 27.68 99.5679 27.68C99.2779 27.68 99.0169 27.6123 98.7849 27.477C98.5529 27.3223 98.3692 27.1193 98.2339 26.868L94.7249 20.401L94.7539 28.782C94.7539 29.188 94.6185 29.5167 94.3479 29.768C94.0965 30.0193 93.7775 30.145 93.3909 30.145C92.9849 30.145 92.6562 30.0193 92.4049 29.768C92.1535 29.5167 92.0279 29.1977 92.0279 28.811V17.066C92.0279 16.6213 92.1535 16.2637 92.4049 15.993C92.6755 15.703 93.0235 15.558 93.4489 15.558C93.8355 15.558 94.1642 15.6257 94.4349 15.761C94.7249 15.8963 94.9665 16.167 95.1599 16.573L99.5679 24.867L103.86 16.718C104.092 16.2927 104.334 15.993 104.585 15.819C104.836 15.645 105.165 15.558 105.571 15.558Z" fill="#224156"/>
<g clip-path="url(#clip0_7054_14640)">
<path d="M72.5518 20.0786C72.5514 20.0782 72.551 20.0778 72.5506 20.0774L65.2045 12.7356C64.8914 12.4225 64.4751 12.25 64.0323 12.25C63.5895 12.25 63.1731 12.4223 62.8599 12.7354L55.5177 20.0735C55.5152 20.076 55.5127 20.0786 55.5103 20.0811C54.8673 20.7275 54.8684 21.7762 55.5134 22.4209C55.8081 22.7156 56.1974 22.8863 56.6135 22.9041C56.6304 22.9058 56.6475 22.9066 56.6646 22.9066H56.9574V28.3097C56.9574 29.3789 57.8278 30.2488 58.8978 30.2488H61.7719C62.0631 30.2488 62.2995 30.0128 62.2995 29.7215V25.4855C62.2995 24.9976 62.6965 24.6007 63.1847 24.6007H64.8799C65.368 24.6007 65.7651 24.9976 65.7651 25.4855V29.7215C65.7651 30.0128 66.0013 30.2488 66.2927 30.2488H69.1667C70.2367 30.2488 71.1071 29.3789 71.1071 28.3097V22.9066H71.3786C71.8213 22.9066 72.2376 22.7343 72.551 22.4212C73.1967 21.7754 73.197 20.7249 72.5518 20.0786Z" fill="#224156"/>
</g>
<path d="M64.7843 3.85049C66.5754 3.85049 68.2931 4.5616 69.5595 5.82739C70.826 7.09318 71.5375 8.80996 71.5375 10.6001C71.5375 10.799 71.6165 10.9897 71.7573 11.1303C71.898 11.271 72.0888 11.35 72.2879 11.35C72.4869 11.35 72.6777 11.271 72.8184 11.1303C72.9592 10.9897 73.0382 10.799 73.0382 10.6001C73.0382 8.41216 72.1686 6.31387 70.6207 4.7668C69.0728 3.21972 66.9734 2.35059 64.7843 2.35059C64.5853 2.35059 64.3944 2.4296 64.2537 2.57024C64.113 2.71088 64.0339 2.90164 64.0339 3.10054C64.0339 3.29944 64.113 3.49019 64.2537 3.63083C64.3944 3.77148 64.5853 3.85049 64.7843 3.85049Z" fill="#224156"/>
<path d="M64.8218 6.62568C65.8666 6.62568 66.8686 7.04049 67.6074 7.77887C68.3461 8.51725 68.7612 9.5187 68.7612 10.5629C68.7612 10.7718 68.8442 10.9721 68.9919 11.1197C69.1397 11.2674 69.3401 11.3504 69.5491 11.3504C69.758 11.3504 69.9584 11.2674 70.1062 11.1197C70.2539 10.9721 70.3369 10.7718 70.3369 10.5629C70.3369 9.10101 69.7559 7.69898 68.7216 6.66525C67.6873 5.63152 66.2845 5.05078 64.8218 5.05078C64.6129 5.05078 64.4125 5.13374 64.2647 5.28142C64.1169 5.4291 64.0339 5.62939 64.0339 5.83823C64.0339 6.04707 64.1169 6.24737 64.2647 6.39504C64.4125 6.54272 64.6129 6.62568 64.8218 6.62568Z" fill="#224156"/>
<path d="M64.7843 9.5C64.9834 9.5 65.1742 9.57902 65.315 9.71967C65.4557 9.86032 65.5347 10.0511 65.5347 10.25C65.5347 10.4489 65.6138 10.6397 65.7545 10.7803C65.8953 10.921 66.0861 11 66.2851 11C66.4842 11 66.675 10.921 66.8158 10.7803C66.9565 10.6397 67.0356 10.4489 67.0356 10.25C67.0356 9.65326 66.7984 9.08097 66.3762 8.65901C65.954 8.23705 65.3814 8 64.7843 8C64.5853 8 64.3945 8.07902 64.2537 8.21967C64.113 8.36032 64.0339 8.55109 64.0339 8.75C64.0339 8.94891 64.113 9.13968 64.2537 9.28033C64.3945 9.42098 64.5853 9.5 64.7843 9.5Z" fill="#224156"/>
<defs>
<clipPath id="clip0_7054_14640">
<rect width="18.0085" height="17.9988" fill="white" transform="translate(55.0293 12.25)"/>
</clipPath>
</defs>
</svg>
