<svg width="21" height="22" viewBox="0 0 21 22" fill="none" xmlns="http://www.w3.org/2000/svg">
<g clip-path="url(#clip0_7054_14635)">
<path d="M17.9235 3.76078C13.8224 -0.339098 7.17414 -0.338113 3.07426 3.76304C-1.02562 7.86419 -1.02464 14.5124 3.07652 18.6123C7.17767 22.7122 13.8259 22.7112 17.9258 18.61C19.8948 16.6404 21.0006 13.9693 21 11.1843C20.9994 8.39973 19.8928 5.72945 17.9235 3.76078ZM15.9019 15.3129L15.9005 15.3143V15.3108L15.3685 15.8393C14.6805 16.536 13.6784 16.8227 12.726 16.5953C11.7664 16.3385 10.8542 15.9296 10.024 15.3843C9.25265 14.8914 8.53783 14.3151 7.89249 13.6658C7.2987 13.0764 6.76526 12.4291 6.29997 11.7338C5.79105 10.9856 5.38824 10.1705 5.10297 9.3118C4.77596 8.30298 5.04695 7.19601 5.80299 6.45231L6.42597 5.82932C6.59918 5.65534 6.88063 5.65472 7.05458 5.82793L7.05597 5.82932L9.02296 7.79631C9.19695 7.96952 9.19756 8.25097 9.02436 8.42492L9.02296 8.42631L7.86796 9.58131C7.53655 9.90911 7.49488 10.43 7.76997 10.8063C8.18772 11.3796 8.65001 11.9191 9.15249 12.4198C9.71272 12.9825 10.3218 13.4943 10.9725 13.9493C11.3485 14.2116 11.8582 14.1674 12.1835 13.8443L13.2999 12.7104C13.4732 12.5364 13.7546 12.5357 13.9286 12.709L13.9299 12.7104L15.9005 14.6844C16.0745 14.8575 16.0751 15.1389 15.9019 15.3129Z" fill="#1F5FBF"/>
</g>
<defs>
<clipPath id="clip0_7054_14635">
<rect width="21" height="21.3134" fill="white" transform="translate(0 0.194336)"/>
</clipPath>
</defs>
</svg>
